CSLSans-ExtraLightItalic.ufo
<glyph name="semicolon" format="2">
  <advance width="300"/>
  <unicode hex="003B"/>
  <outline>
    <contour>
      <point x="192" y="425" type="qcurve"/>
      <point x="162" y="425"/>
      <point x="161" y="449" type="qcurve"/>
      <point x="161" y="458"/>
      <point x="164" y="471" type="qcurve" smooth="yes"/>
      <point x="170" y="500"/>
      <point x="202" y="500" type="qcurve" smooth="yes"/>
      <point x="233" y="500"/>
      <point x="233" y="477" type="qcurve"/>
      <point x="233" y="477"/>
      <point x="233" y="477" type="qcurve"/>
      <point x="233" y="477"/>
      <point x="233" y="477" type="qcurve"/>
      <point x="233" y="477"/>
      <point x="233" y="477" type="qcurve"/>
      <point x="233" y="477"/>
      <point x="233" y="476" type="qcurve"/>
      <point x="233" y="476"/>
      <point x="233" y="476" type="qcurve"/>
      <point x="233" y="468"/>
      <point x="230" y="454" type="qcurve"/>
      <point x="226" y="426"/>
    </contour>
    <contour>
      <point x="1" y="-144" type="line"/>
      <point x="76" y="-80"/>
      <point x="102" y="-5" type="qcurve"/>
      <point x="74" y="-2"/>
      <point x="73" y="18" type="qcurve"/>
      <point x="74" y="24"/>
      <point x="74" y="28" type="qcurve"/>
      <point x="75" y="31"/>
      <point x="75" y="33" type="qcurve"/>
      <point x="75" y="33"/>
      <point x="75" y="33" type="qcurve"/>
      <point x="75" y="33"/>
      <point x="75" y="33" type="qcurve"/>
      <point x="75" y="33"/>
      <point x="75" y="33" type="qcurve"/>
      <point x="75" y="34" type="line"/>
      <point x="75" y="34"/>
      <point x="75" y="34" type="qcurve"/>
      <point x="75" y="34"/>
      <point x="75" y="34" type="qcurve"/>
      <point x="75" y="35" type="line"/>
      <point x="76" y="38"/>
      <point x="76" y="39" type="qcurve"/>
      <point x="78" y="50"/>
      <point x="86" y="59" type="qcurve" smooth="yes"/>
      <point x="94" y="68"/>
      <point x="114" y="68" type="qcurve" smooth="yes"/>
      <point x="145" y="68"/>
      <point x="145" y="45" type="qcurve"/>
      <point x="145" y="45"/>
      <point x="145" y="45" type="qcurve"/>
      <point x="145" y="45"/>
      <point x="145" y="45" type="qcurve"/>
      <point x="145" y="45"/>
      <point x="145" y="45" type="qcurve"/>
      <point x="145" y="45"/>
      <point x="145" y="44" type="qcurve"/>
      <point x="145" y="44"/>
      <point x="145" y="44" type="qcurve"/>
      <point x="145" y="44"/>
      <point x="145" y="44" type="qcurve"/>
      <point x="145" y="44"/>
      <point x="145" y="44" type="qcurve"/>
      <point x="145" y="44"/>
      <point x="145" y="44" type="qcurve"/>
      <point x="145" y="44"/>
      <point x="145" y="43" type="qcurve"/>
      <point x="145" y="43"/>
      <point x="145" y="43" type="qcurve"/>
      <point x="145" y="42" type="line"/>
      <point x="145" y="42"/>
      <point x="145" y="42" type="qcurve"/>
      <point x="145" y="42"/>
      <point x="145" y="42" type="qcurve"/>
      <point x="145" y="42"/>
      <point x="145" y="42" type="qcurve"/>
      <point x="145" y="42"/>
      <point x="145" y="42" type="qcurve"/>
      <point x="145" y="42"/>
      <point x="145" y="42" type="qcurve"/>
      <point x="145" y="42"/>
      <point x="145" y="42" type="qcurve"/>
      <point x="145" y="42"/>
      <point x="145" y="41" type="qcurve"/>
      <point x="145" y="41"/>
      <point x="145" y="41" type="qcurve"/>
      <point x="145" y="36"/>
      <point x="143" y="29" type="qcurve"/>
      <point x="142" y="22" type="line"/>
      <point x="133" y="-20"/>
      <point x="103" y="-65" type="qcurve"/>
      <point x="75" y="-110"/>
      <point x="33" y="-144" type="qcurve"/>
    </contour>
  </outline>
</glyph>
<glyph name="J" format="2">
  <advance width="465"/>
  <unicode hex="004A"/>
  <outline>
    <contour>
      <point x="149" y="-12" type="qcurve" smooth="yes"/>
      <point x="77" y="-12"/>
      <point x="35" y="26" type="qcurve" smooth="yes"/>
      <point x="-6" y="64"/>
      <point x="-10" y="126" type="qcurve"/>
      <point x="23" y="134" type="line"/>
      <point x="38" y="22"/>
      <point x="150" y="21" type="qcurve" smooth="yes"/>
      <point x="288" y="22"/>
      <point x="320" y="187" type="qcurve" smooth="yes"/>
      <point x="422" y="698" type="line"/>
      <point x="458" y="698" type="line"/>
      <point x="355" y="180" type="line" smooth="yes"/>
      <point x="337" y="88"/>
      <point x="283" y="38" type="qcurve" smooth="yes"/>
      <point x="230" y="-12"/>
    </contour>
  </outline>
</glyph>
<glyph name="M" format="2">
  <advance width="781"/>
  <unicode hex="004D"/>
  <outline>
    <contour>
      <point x="593" y="0" type="line"/>
      <point x="724" y="652" type="line"/>
      <point x="721" y="652" type="line"/>
      <point x="384" y="219" type="line"/>
      <point x="220" y="652" type="line"/>
      <point x="216" y="652" type="line"/>
      <point x="85" y="0" type="line"/>
      <point x="50" y="0" type="line"/>
      <point x="190" y="698" type="line"/>
      <point x="240" y="698" type="line"/>
      <point x="394" y="288" type="line"/>
      <point x="397" y="288" type="line"/>
      <point x="715" y="698" type="line"/>
      <point x="768" y="698" type="line"/>
      <point x="628" y="0" type="line"/>
    </contour>
  </outline>
</glyph>
<glyph name="Q" format="2">
  <advance width="663"/>
  <unicode hex="0051"/>
  <outline>
    <contour>
      <point x="630" y="463" type="line" smooth="yes"/>
      <point x="630" y="365"/>
      <point x="596" y="254" type="qcurve" smooth="yes"/>
      <point x="569" y="166"/>
      <point x="515" y="99" type="qcurve"/>
      <point x="601" y="0" type="line"/>
      <point x="558" y="0" type="line"/>
      <point x="493" y="75" type="line"/>
      <point x="489" y="70"/>
      <point x="484" y="65" type="qcurve" smooth="yes"/>
      <point x="406" y="-12"/>
      <point x="194" y="-12"/>
      <point x="130" y="49" type="qcurve" smooth="yes"/>
      <point x="66" y="112"/>
      <point x="66" y="332"/>
      <point x="135" y="556"/>
      <point x="210" y="631" type="qcurve" smooth="yes"/>
      <point x="292" y="710"/>
      <point x="504" y="710"/>
      <point x="567" y="648" type="qcurve" smooth="yes"/>
      <point x="630" y="586"/>
      <point x="630" y="469" type="qcurve" smooth="yes"/>
    </contour>
    <contour>
      <point x="404" y="677" type="qcurve" smooth="yes"/>
      <point x="395" y="677" type="line"/>
      <point x="298" y="676"/>
      <point x="151" y="524"/>
      <point x="124" y="389" type="qcurve" smooth="yes"/>
      <point x="111" y="323" type="line"/>
      <point x="102" y="266"/>
      <point x="102" y="224" type="qcurve" smooth="yes"/>
      <point x="102" y="132"/>
      <point x="151" y="76" type="qcurve"/>
      <point x="202" y="22"/>
      <point x="295" y="21" type="qcurve"/>
      <point x="298" y="21" type="line" smooth="yes"/>
      <point x="401" y="21"/>
      <point x="472" y="98" type="qcurve"/>
      <point x="472" y="98"/>
      <point x="473" y="99" type="qcurve"/>
      <point x="376" y="211" type="line"/>
      <point x="419" y="211" type="line"/>
      <point x="494" y="124" type="line"/>
      <point x="550" y="197"/>
      <point x="572" y="309" type="qcurve" smooth="yes"/>
      <point x="585" y="375" type="line"/>
      <point x="594" y="434"/>
      <point x="594" y="473" type="qcurve" smooth="yes"/>
      <point x="594" y="478" type="line" smooth="yes"/>
      <point x="594" y="569"/>
      <point x="496" y="677"/>
    </contour>
  </outline>
</glyph>
<glyph name="asciicircum" format="2">
  <advance width="600"/>
  <unicode hex="005E"/>
  <outline>
    <contour>
      <point x="378" y="663" type="line"/>
      <point x="376" y="663" type="line"/>
      <point x="101" y="316" type="line"/>
      <point x="74" y="332" type="line"/>
      <point x="363" y="698" type="line"/>
      <point x="400" y="698" type="line"/>
      <point x="542" y="330" type="line"/>
      <point x="514" y="316" type="line"/>
    </contour>
  </outline>
</glyph>
<glyph name="m" format="2">
  <advance width="844"/>
  <unicode hex="006D"/>
  <outline>
    <contour>
      <point x="700" y="0" type="line" smooth="yes"/>
      <point x="666" y="0"/>
      <point x="666" y="28" type="qcurve" smooth="yes"/>
      <point x="666" y="38"/>
      <point x="724" y="320" type="qcurve" smooth="yes"/>
      <point x="731" y="353"/>
      <point x="731" y="375" type="qcurve" smooth="yes"/>
      <point x="731" y="376" type="line"/>
      <point x="731" y="376"/>
      <point x="731" y="376" type="qcurve"/>
      <point x="731" y="376"/>
      <point x="731" y="376" type="qcurve"/>
      <point x="731" y="376"/>
      <point x="731" y="376" type="qcurve"/>
      <point x="731" y="376"/>
      <point x="731" y="376" type="qcurve"/>
      <point x="731" y="376"/>
      <point x="731" y="376" type="qcurve"/>
      <point x="731" y="376"/>
      <point x="731" y="376" type="qcurve"/>
      <point x="731" y="376"/>
      <point x="731" y="376" type="qcurve"/>
      <point x="731" y="378" type="line"/>
      <point x="731" y="378"/>
      <point x="731" y="378" type="qcurve"/>
      <point x="731" y="378"/>
      <point x="731" y="378" type="qcurve"/>
      <point x="731" y="381" type="line" smooth="yes"/>
      <point x="731" y="489"/>
      <point x="629" y="489" type="qcurve" smooth="yes"/>
      <point x="561" y="489"/>
      <point x="510" y="432" type="qcurve" smooth="yes"/>
      <point x="470" y="388"/>
      <point x="451" y="312" type="qcurve"/>
      <point x="388" y="0" type="line"/>
      <point x="354" y="0" type="line"/>
      <point x="422" y="334"/>
      <point x="423" y="352" type="qcurve"/>
      <point x="425" y="367"/>
      <point x="425" y="377" type="qcurve"/>
      <point x="425" y="377"/>
      <point x="425" y="377" type="qcurve"/>
      <point x="425" y="377"/>
      <point x="425" y="377" type="qcurve"/>
      <point x="425" y="377"/>
      <point x="425" y="377" type="qcurve"/>
      <point x="425" y="377"/>
      <point x="425" y="377" type="qcurve"/>
      <point x="425" y="377"/>
      <point x="425" y="377" type="qcurve"/>
      <point x="425" y="377"/>
      <point x="425" y="377" type="qcurve"/>
      <point x="425" y="377"/>
      <point x="425" y="378" type="qcurve"/>
      <point x="425" y="378"/>
      <point x="425" y="378" type="qcurve"/>
      <point x="425" y="378"/>
      <point x="425" y="378" type="qcurve"/>
      <point x="425" y="378"/>
      <point x="425" y="378" type="qcurve"/>
      <point x="425" y="380" type="line"/>
      <point x="425" y="380"/>
      <point x="425" y="380" type="qcurve"/>
      <point x="425" y="380"/>
      <point x="425" y="380" type="qcurve"/>
      <point x="425" y="383" type="line" smooth="yes"/>
      <point x="425" y="489"/>
      <point x="325" y="489" type="qcurve" smooth="yes"/>
      <point x="259" y="489"/>
      <point x="209" y="432" type="qcurve"/>
      <point x="165" y="387"/>
      <point x="144" y="306" type="qcurve"/>
      <point x="83" y="0" type="line"/>
      <point x="49" y="0" type="line"/>
      <point x="151" y="508" type="line"/>
      <point x="185" y="508" type="line"/>
      <point x="164" y="404" type="line"/>
      <point x="167" y="404" type="line"/>
      <point x="224" y="520"/>
      <point x="334" y="520" type="qcurve" smooth="yes"/>
      <point x="394" y="520"/>
      <point x="425" y="486" type="qcurve"/>
      <point x="458" y="453"/>
      <point x="459" y="399" type="qcurve"/>
      <point x="463" y="399" type="line"/>
      <point x="490" y="456"/>
      <point x="533" y="488" type="qcurve" smooth="yes"/>
      <point x="578" y="520"/>
      <point x="638" y="520" type="qcurve" smooth="yes"/>
      <point x="700" y="520"/>
      <point x="732" y="485" type="qcurve" smooth="yes"/>
      <point x="765" y="450"/>
      <point x="765" y="386" type="qcurve" smooth="yes"/>
      <point x="765" y="384" type="line"/>
      <point x="765" y="384"/>
      <point x="765" y="384" type="qcurve"/>
      <point x="765" y="384"/>
      <point x="765" y="384" type="qcurve"/>
      <point x="765" y="384"/>
      <point x="765" y="384" type="qcurve"/>
      <point x="765" y="383" type="line"/>
      <point x="765" y="383"/>
      <point x="765" y="383" type="qcurve"/>
      <point x="765" y="379" type="line" smooth="yes"/>
      <point x="765" y="352"/>
      <point x="758" y="321" type="qcurve" smooth="yes"/>
      <point x="700" y="31" type="line"/>
      <point x="783" y="31" type="line"/>
      <point x="776" y="0" type="line"/>
    </contour>
    <contour>
      <point x="731" y="377" type="qcurve"/>
      <point x="731" y="377"/>
      <point x="731" y="377" type="qcurve"/>
      <point x="731" y="377"/>
      <point x="731" y="377" type="qcurve"/>
      <point x="731" y="377"/>
    </contour>
  </outline>
</glyph>
<glyph name="bar" format="2">
  <advance width="249"/>
  <unicode hex="007C"/>
  <outline>
    <contour>
      <point x="31" y="-138" type="line"/>
      <point x="211" y="760" type="line"/>
      <point x="241" y="760" type="line"/>
      <point x="61" y="-138" type="line"/>
    </contour>
  </outline>
</glyph>
<glyph name="asciitilde" format="2">
  <advance width="600"/>
  <unicode hex="007E"/>
  <outline>
    <contour>
      <point x="422" y="251" type="qcurve"/>
      <point x="393" y="252"/>
      <point x="367" y="261" type="qcurve"/>
      <point x="341" y="272"/>
      <point x="302" y="290" type="qcurve"/>
      <point x="268" y="308"/>
      <point x="244" y="317" type="qcurve" smooth="yes"/>
      <point x="220" y="326"/>
      <point x="192" y="326" type="qcurve" smooth="yes"/>
      <point x="138" y="326"/>
      <point x="91" y="286" type="qcurve"/>
      <point x="76" y="308" type="line"/>
      <point x="126" y="356"/>
      <point x="193" y="357" type="qcurve"/>
      <point x="198" y="357" type="line" smooth="yes"/>
      <point x="228" y="357"/>
      <point x="253" y="347" type="qcurve"/>
      <point x="280" y="338"/>
      <point x="316" y="319" type="qcurve" smooth="yes"/>
      <point x="353" y="300"/>
      <point x="376" y="291" type="qcurve" smooth="yes"/>
      <point x="400" y="282"/>
      <point x="428" y="282" type="qcurve" smooth="yes"/>
      <point x="484" y="282"/>
      <point x="529" y="322" type="qcurve"/>
      <point x="544" y="300" type="line"/>
      <point x="494" y="252"/>
    </contour>
  </outline>
</glyph>
<glyph name="dieresis" format="2">
  <advance width="600"/>
  <unicode hex="00A8"/>
  <outline>
    <contour>
      <point x="230" y="636" type="qcurve" smooth="yes"/>
      <point x="206" y="636"/>
      <point x="205" y="657" type="qcurve"/>
      <point x="205" y="662"/>
      <point x="208" y="673" type="qcurve" smooth="yes"/>
      <point x="211" y="685"/>
      <point x="217" y="691" type="qcurve" smooth="yes"/>
      <point x="224" y="698"/>
      <point x="239" y="698" type="qcurve" smooth="yes"/>
      <point x="264" y="698"/>
      <point x="264" y="677" type="qcurve" smooth="yes"/>
      <point x="264" y="673"/>
      <point x="261" y="661" type="qcurve"/>
      <point x="259" y="651"/>
      <point x="252" y="643" type="qcurve" smooth="yes"/>
      <point x="246" y="636"/>
    </contour>
    <contour>
      <point x="412" y="636" type="qcurve" smooth="yes"/>
      <point x="388" y="636"/>
      <point x="387" y="657" type="qcurve"/>
      <point x="387" y="662"/>
      <point x="390" y="673" type="qcurve" smooth="yes"/>
      <point x="393" y="685"/>
      <point x="399" y="691" type="qcurve" smooth="yes"/>
      <point x="406" y="698"/>
      <point x="421" y="698" type="qcurve" smooth="yes"/>
      <point x="446" y="698"/>
      <point x="446" y="677" type="qcurve" smooth="yes"/>
      <point x="446" y="673"/>
      <point x="443" y="661" type="qcurve"/>
      <point x="441" y="651"/>
      <point x="434" y="643" type="qcurve" smooth="yes"/>
      <point x="428" y="636"/>
    </contour>
  </outline>
</glyph>
<glyph name="macron" format="2">
  <advance width="600"/>
  <unicode hex="00AF"/>
  <outline>
    <contour>
      <point x="191" y="653" type="line"/>
      <point x="197" y="683" type="line"/>
      <point x="458" y="683" type="line"/>
      <point x="452" y="653" type="line"/>
    </contour>
  </outline>
</glyph>
<glyph name="twosuperior" format="2">
  <advance width="338"/>
  <unicode hex="00B2"/>
  <outline>
    <contour>
      <point x="52" y="329" type="line"/>
      <point x="58" y="358" type="line"/>
      <point x="213" y="468" type="line"/>
      <point x="306" y="530"/>
      <point x="318" y="583" type="qcurve"/>
      <point x="321" y="601"/>
      <point x="321" y="607" type="qcurve" smooth="yes"/>
      <point x="320" y="679"/>
      <point x="239" y="679" type="qcurve" smooth="yes"/>
      <point x="238" y="679" type="line"/>
      <point x="238" y="679"/>
      <point x="238" y="679" type="qcurve"/>
      <point x="238" y="679"/>
      <point x="238" y="679" type="qcurve"/>
      <point x="237" y="679" type="line" smooth="yes"/>
      <point x="162" y="679"/>
      <point x="129" y="605" type="qcurve"/>
      <point x="104" y="615" type="line"/>
      <point x="144" y="704"/>
      <point x="242" y="704" type="qcurve" smooth="yes"/>
      <point x="292" y="704"/>
      <point x="322" y="677" type="qcurve" smooth="yes"/>
      <point x="352" y="650"/>
      <point x="352" y="608" type="qcurve" smooth="yes"/>
      <point x="352" y="562"/>
      <point x="320" y="525" type="qcurve"/>
      <point x="287" y="489"/>
      <point x="229" y="450" type="qcurve" smooth="yes"/>
      <point x="90" y="354" type="line"/>
      <point x="314" y="354" type="line"/>
      <point x="309" y="329" type="line"/>
    </contour>
  </outline>
</glyph>
<glyph name="Iogonek" format="2">
  <advance width="238"/>
  <unicode hex="012E"/>
  <outline>
    <contour>
      <point x="-11" y="-203" type="qcurve" smooth="yes"/>
      <point x="-42" y="-203"/>
      <point x="-65" y="-187" type="qcurve"/>
      <point x="-88" y="-169"/>
      <point x="-88" y="-135" type="qcurve" smooth="yes"/>
      <point x="-88" y="-102"/>
      <point x="-58" y="-70" type="qcurve" smooth="yes"/>
      <point x="-26" y="-36"/>
      <point x="49" y="0" type="qcurve"/>
      <point x="189" y="698" type="line"/>
      <point x="225" y="698" type="line"/>
      <point x="85" y="0" type="line"/>
      <point x="9" y="-45"/>
      <point x="-24" y="-73" type="qcurve" smooth="yes"/>
      <point x="-56" y="-100"/>
      <point x="-56" y="-133" type="qcurve" smooth="yes"/>
      <point x="-56" y="-154"/>
      <point x="-43" y="-166" type="qcurve"/>
      <point x="-30" y="-176"/>
      <point x="-10" y="-177" type="qcurve"/>
      <point x="29" y="-177"/>
      <point x="53" y="-151" type="qcurve"/>
      <point x="72" y="-170" type="line"/>
      <point x="46" y="-203"/>
    </contour>
  </outline>
</glyph>
<glyph name="iogonek" format="2">
  <advance width="242"/>
  <unicode hex="012F"/>
  <outline>
    <contour>
      <point x="201" y="664" type="qcurve" smooth="yes"/>
      <point x="176" y="664"/>
      <point x="176" y="685" type="qcurve" smooth="yes"/>
      <point x="176" y="694"/>
      <point x="179" y="702" type="qcurve"/>
      <point x="182" y="726"/>
      <point x="212" y="726" type="qcurve" smooth="yes"/>
      <point x="237" y="726"/>
      <point x="237" y="707" type="qcurve"/>
      <point x="237" y="707"/>
      <point x="237" y="707" type="qcurve"/>
      <point x="237" y="707"/>
      <point x="237" y="707" type="qcurve"/>
      <point x="237" y="707"/>
      <point x="237" y="707" type="qcurve"/>
      <point x="237" y="707"/>
      <point x="237" y="707" type="qcurve"/>
      <point x="237" y="707"/>
      <point x="237" y="707" type="qcurve"/>
      <point x="237" y="707"/>
      <point x="237" y="707" type="qcurve"/>
      <point x="237" y="707"/>
      <point x="237" y="706" type="qcurve"/>
      <point x="237" y="706"/>
      <point x="237" y="706" type="qcurve"/>
      <point x="237" y="706"/>
      <point x="237" y="706" type="qcurve"/>
      <point x="237" y="706"/>
      <point x="237" y="706" type="qcurve"/>
      <point x="237" y="706"/>
      <point x="237" y="706" type="qcurve"/>
      <point x="237" y="706"/>
      <point x="237" y="706" type="qcurve"/>
      <point x="237" y="706"/>
      <point x="237" y="706" type="qcurve"/>
      <point x="237" y="706"/>
      <point x="237" y="706" type="qcurve"/>
      <point x="237" y="706"/>
      <point x="237" y="705" type="qcurve"/>
      <point x="237" y="705"/>
      <point x="237" y="705" type="qcurve"/>
      <point x="237" y="705"/>
      <point x="237" y="705" type="qcurve"/>
      <point x="237" y="705"/>
      <point x="237" y="705" type="qcurve"/>
      <point x="237" y="705"/>
      <point x="237" y="705" type="qcurve"/>
      <point x="237" y="705"/>
      <point x="237" y="705" type="qcurve"/>
      <point x="237" y="705"/>
      <point x="237" y="705" type="qcurve"/>
      <point x="237" y="705"/>
      <point x="237" y="705" type="qcurve"/>
      <point x="237" y="705"/>
      <point x="237" y="704" type="qcurve"/>
      <point x="237" y="704"/>
      <point x="237" y="704" type="qcurve"/>
      <point x="237" y="700" type="line" smooth="yes"/>
      <point x="237" y="695"/>
      <point x="236" y="691" type="qcurve"/>
      <point x="235" y="688" type="line"/>
      <point x="229" y="664"/>
    </contour>
    <contour>
      <point x="69" y="-203" type="qcurve" smooth="yes"/>
      <point x="38" y="-203"/>
      <point x="15" y="-187" type="qcurve"/>
      <point x="-8" y="-169"/>
      <point x="-8" y="-135" type="qcurve" smooth="yes"/>
      <point x="-8" y="-105"/>
      <point x="21" y="-73" type="qcurve" smooth="yes"/>
      <point x="51" y="-40"/>
      <point x="129" y="-3" type="qcurve"/>
      <point x="128" y="0" type="line"/>
      <point x="89" y="0" type="line" smooth="yes"/>
      <point x="56" y="0"/>
      <point x="56" y="28" type="qcurve" smooth="yes"/>
      <point x="56" y="37"/>
      <point x="150" y="508" type="qcurve"/>
      <point x="184" y="508" type="line"/>
      <point x="89" y="31" type="line"/>
      <point x="171" y="31" type="line"/>
      <point x="165" y="0" type="line"/>
      <point x="89" y="-45"/>
      <point x="56" y="-73" type="qcurve" smooth="yes"/>
      <point x="24" y="-100"/>
      <point x="24" y="-133" type="qcurve" smooth="yes"/>
      <point x="24" y="-154"/>
      <point x="37" y="-166" type="qcurve"/>
      <point x="50" y="-176"/>
      <point x="70" y="-177" type="qcurve"/>
      <point x="109" y="-177"/>
      <point x="133" y="-151" type="qcurve"/>
      <point x="152" y="-170" type="line"/>
      <point x="126" y="-203"/>
    </contour>
  </outline>
</glyph>
<glyph name="acutecomb" format="2">
  <unicode hex="0301"/>
  <outline>
    <contour>
      <point x="-24" y="601" type="line"/>
      <point x="110" y="758" type="line"/>
      <point x="139" y="739" type="line"/>
      <point x="-2" y="587" type="line"/>
    </contour>
  </outline>
</glyph>
<glyph name="questiongreek" format="2">
  <advance width="266"/>
  <unicode hex="037E"/>
  <outline>
    <contour>
      <point x="168" y="425" type="qcurve"/>
      <point x="152" y="426"/>
      <point x="144" y="432" type="qcurve"/>
      <point x="138" y="440"/>
      <point x="137" y="449" type="qcurve"/>
      <point x="138" y="454"/>
      <point x="138" y="460" type="qcurve"/>
      <point x="140" y="468"/>
      <point x="140" y="471" type="qcurve"/>
      <point x="142" y="482"/>
      <point x="150" y="491" type="qcurve" smooth="yes"/>
      <point x="158" y="500"/>
      <point x="178" y="500" type="qcurve" smooth="yes"/>
      <point x="196" y="500"/>
      <point x="202" y="493" type="qcurve"/>
      <point x="209" y="487"/>
      <point x="209" y="478" type="qcurve"/>
      <point x="209" y="478"/>
      <point x="209" y="478" type="qcurve"/>
      <point x="209" y="478"/>
      <point x="209" y="478" type="qcurve"/>
      <point x="209" y="478"/>
      <point x="209" y="478" type="qcurve"/>
      <point x="209" y="478"/>
      <point x="209" y="477" type="qcurve"/>
      <point x="209" y="477"/>
      <point x="209" y="477" type="qcurve"/>
      <point x="209" y="476" type="line"/>
      <point x="209" y="476"/>
      <point x="209" y="476" type="qcurve"/>
      <point x="209" y="476"/>
      <point x="209" y="475" type="qcurve"/>
      <point x="209" y="475"/>
      <point x="209" y="475" type="qcurve"/>
      <point x="209" y="475"/>
      <point x="209" y="475" type="qcurve"/>
      <point x="209" y="475"/>
      <point x="209" y="475" type="qcurve"/>
      <point x="209" y="474" type="line"/>
      <point x="209" y="474"/>
      <point x="209" y="474" type="qcurve"/>
      <point x="209" y="474"/>
      <point x="209" y="474" type="qcurve"/>
      <point x="209" y="474"/>
      <point x="209" y="474" type="qcurve"/>
      <point x="209" y="474"/>
      <point x="209" y="473" type="qcurve"/>
      <point x="209" y="473"/>
      <point x="209" y="473" type="qcurve"/>
      <point x="209" y="470"/>
      <point x="208" y="465" type="qcurve"/>
      <point x="208" y="458"/>
      <point x="206" y="454" type="qcurve"/>
      <point x="204" y="444"/>
      <point x="196" y="434" type="qcurve"/>
      <point x="188" y="425"/>
    </contour>
    <contour>
      <point x="90" y="68" type="qcurve" smooth="yes"/>
      <point x="108" y="68"/>
      <point x="114" y="61" type="qcurve"/>
      <point x="121" y="55"/>
      <point x="121" y="46" type="qcurve"/>
      <point x="121" y="46"/>
      <point x="121" y="46" type="qcurve"/>
      <point x="121" y="46"/>
      <point x="121" y="45" type="qcurve"/>
      <point x="121" y="45"/>
      <point x="121" y="45" type="qcurve"/>
      <point x="121" y="45"/>
      <point x="121" y="45" type="qcurve"/>
      <point x="121" y="45"/>
      <point x="121" y="45" type="qcurve"/>
      <point x="121" y="44" type="line"/>
      <point x="121" y="44"/>
      <point x="121" y="44" type="qcurve"/>
      <point x="121" y="44"/>
      <point x="121" y="43" type="qcurve"/>
      <point x="121" y="43"/>
      <point x="121" y="43" type="qcurve"/>
      <point x="121" y="43"/>
      <point x="121" y="43" type="qcurve"/>
      <point x="121" y="43"/>
      <point x="121" y="43" type="qcurve"/>
      <point x="121" y="42" type="line"/>
      <point x="121" y="42"/>
      <point x="121" y="42" type="qcurve"/>
      <point x="121" y="42"/>
      <point x="121" y="41" type="qcurve"/>
      <point x="121" y="41"/>
      <point x="121" y="41" type="qcurve"/>
      <point x="121" y="41"/>
      <point x="121" y="41" type="qcurve"/>
      <point x="121" y="41"/>
      <point x="121" y="41" type="qcurve"/>
      <point x="121" y="38"/>
      <point x="120" y="33" type="qcurve"/>
      <point x="120" y="28"/>
      <point x="118" y="22" type="qcurve"/>
      <point x="114" y="3"/>
      <point x="103" y="-20" type="qcurve"/>
      <point x="94" y="-42"/>
      <point x="79" y="-65" type="qcurve" smooth="yes"/>
      <point x="65" y="-86"/>
      <point x="47" y="-107" type="qcurve"/>
      <point x="30" y="-128"/>
      <point x="9" y="-144" type="qcurve"/>
      <point x="-23" y="-144" type="line"/>
      <point x="22" y="-106"/>
      <point x="44" y="-71" type="qcurve" smooth="yes"/>
      <point x="68" y="-33"/>
      <point x="78" y="-5" type="qcurve"/>
      <point x="62" y="-4"/>
      <point x="55" y="2" type="qcurve"/>
      <point x="49" y="10"/>
      <point x="49" y="18" type="qcurve"/>
      <point x="50" y="24"/>
      <point x="50" y="29" type="qcurve"/>
      <point x="52" y="36"/>
      <point x="52" y="39" type="qcurve"/>
      <point x="54" y="50"/>
      <point x="62" y="59" type="qcurve" smooth="yes"/>
      <point x="70" y="68"/>
    </contour>
  </outline>
</glyph>
<glyph name="lambda" format="2">
  <advance width="453"/>
  <unicode hex="03BB"/>
  <outline>
    <contour>
      <point x="228" y="709" type="line"/>
      <point x="153" y="709" type="line"/>
      <point x="159" y="740" type="line"/>
      <point x="226" y="740" type="line" smooth="yes"/>
      <point x="258" y="740"/>
      <point x="261" y="714" type="qcurve" smooth="yes"/>
      <point x="352" y="31" type="line"/>
      <point x="401" y="31" type="line"/>
      <point x="395" y="0" type="line"/>
      <point x="354" y="0" type="line" smooth="yes"/>
      <point x="324" y="0"/>
      <point x="320" y="26" type="qcurve" smooth="yes"/>
      <point x="288" y="262" type="line"/>
      <point x="264" y="464" type="line"/>
      <point x="260" y="464" type="line"/>
      <point x="150" y="260" type="line"/>
      <point x="4" y="0" type="line"/>
      <point x="-33" y="0" type="line"/>
      <point x="255" y="510" type="line"/>
    </contour>
  </outline>
</glyph>
<glyph name="rho" format="2">
  <advance width="539"/>
  <unicode hex="03C1"/>
  <outline>
    <contour>
      <point x="230" y="19" type="qcurve" smooth="yes"/>
      <point x="311" y="19"/>
      <point x="362" y="73" type="qcurve" smooth="yes"/>
      <point x="414" y="129"/>
      <point x="433" y="222" type="qcurve" smooth="yes"/>
      <point x="442" y="269" type="line"/>
      <point x="446" y="285"/>
      <point x="446" y="301" type="qcurve"/>
      <point x="447" y="312"/>
      <point x="447" y="325" type="qcurve" smooth="yes"/>
      <point x="447" y="326" type="line"/>
      <point x="447" y="326"/>
      <point x="447" y="326" type="qcurve"/>
      <point x="447" y="326"/>
      <point x="447" y="326" type="qcurve"/>
      <point x="447" y="326"/>
      <point x="447" y="327" type="qcurve"/>
      <point x="447" y="327"/>
      <point x="447" y="327" type="qcurve"/>
      <point x="447" y="327"/>
      <point x="447" y="327" type="qcurve"/>
      <point x="447" y="328" type="line"/>
      <point x="447" y="328"/>
      <point x="447" y="328" type="qcurve"/>
      <point x="447" y="328"/>
      <point x="447" y="328" type="qcurve"/>
      <point x="447" y="328"/>
      <point x="447" y="328" type="qcurve"/>
      <point x="447" y="328"/>
      <point x="447" y="328" type="qcurve"/>
      <point x="447" y="328"/>
      <point x="447" y="328" type="qcurve"/>
      <point x="447" y="329" type="line"/>
      <point x="447" y="329"/>
      <point x="447" y="329" type="qcurve"/>
      <point x="447" y="329"/>
      <point x="447" y="329" type="qcurve"/>
      <point x="447" y="330"/>
      <point x="447" y="330" type="qcurve"/>
      <point x="447" y="330"/>
      <point x="447" y="330" type="qcurve"/>
      <point x="447" y="330"/>
      <point x="447" y="330" type="qcurve"/>
      <point x="447" y="331" type="line"/>
      <point x="447" y="331"/>
      <point x="447" y="331" type="qcurve"/>
      <point x="447" y="331"/>
      <point x="447" y="331" type="qcurve"/>
      <point x="447" y="331"/>
      <point x="447" y="331" type="qcurve"/>
      <point x="447" y="331"/>
      <point x="447" y="331" type="qcurve"/>
      <point x="447" y="331"/>
      <point x="447" y="331" type="qcurve"/>
      <point x="447" y="338" type="line"/>
      <point x="447" y="338"/>
      <point x="447" y="338" type="qcurve"/>
      <point x="447" y="338"/>
      <point x="447" y="338" type="qcurve"/>
      <point x="447" y="338"/>
      <point x="447" y="339" type="qcurve"/>
      <point x="447" y="339"/>
      <point x="447" y="339" type="qcurve"/>
      <point x="447" y="339"/>
      <point x="447" y="339" type="qcurve"/>
      <point x="447" y="339"/>
      <point x="447" y="339" type="qcurve"/>
      <point x="447" y="339"/>
      <point x="447" y="339" type="qcurve"/>
      <point x="447" y="339"/>
      <point x="447" y="340" type="qcurve"/>
      <point x="447" y="340"/>
      <point x="447" y="340" type="qcurve"/>
      <point x="447" y="340"/>
      <point x="447" y="340" type="qcurve"/>
      <point x="447" y="340"/>
      <point x="447" y="340" type="qcurve"/>
      <point x="447" y="340"/>
      <point x="447" y="340" type="qcurve"/>
      <point x="447" y="340"/>
      <point x="447" y="340" type="qcurve"/>
      <point x="447" y="340"/>
      <point x="447" y="340" type="qcurve"/>
      <point x="447" y="340"/>
      <point x="447" y="340" type="qcurve"/>
      <point x="447" y="341" type="line"/>
      <point x="447" y="341"/>
      <point x="447" y="341" type="qcurve"/>
      <point x="447" y="341"/>
      <point x="447" y="341" type="qcurve"/>
      <point x="447" y="341"/>
      <point x="447" y="341" type="qcurve"/>
      <point x="447" y="344" type="line" smooth="yes"/>
      <point x="447" y="373"/>
      <point x="439" y="396" type="qcurve"/>
      <point x="431" y="424"/>
      <point x="414" y="444" type="qcurve"/>
      <point x="398" y="465"/>
      <point x="371" y="477" type="qcurve" smooth="yes"/>
      <point x="345" y="489"/>
      <point x="311" y="489" type="qcurve"/>
      <point x="311" y="489"/>
      <point x="311" y="489" type="qcurve"/>
      <point x="311" y="489"/>
      <point x="311" y="489" type="qcurve"/>
      <point x="311" y="489"/>
      <point x="311" y="489" type="qcurve"/>
      <point x="310" y="489" type="line"/>
      <point x="310" y="489"/>
      <point x="310" y="489" type="qcurve"/>
      <point x="310" y="489"/>
      <point x="310" y="489" type="qcurve"/>
      <point x="308" y="489" type="line" smooth="yes"/>
      <point x="242" y="489"/>
      <point x="191" y="444" type="qcurve" smooth="yes"/>
      <point x="140" y="398"/>
      <point x="117" y="290" type="qcurve" smooth="yes"/>
      <point x="92" y="164" type="line"/>
      <point x="90" y="152"/>
      <point x="90" y="140" type="qcurve" smooth="yes"/>
      <point x="90" y="127"/>
      <point x="92" y="114" type="qcurve"/>
      <point x="98" y="88"/>
      <point x="113" y="67" type="qcurve"/>
      <point x="131" y="47"/>
      <point x="159" y="33" type="qcurve" smooth="yes"/>
      <point x="188" y="19"/>
    </contour>
    <contour>
      <point x="447" y="339" type="qcurve"/>
      <point x="447" y="339"/>
      <point x="447" y="339" type="qcurve"/>
      <point x="447" y="339"/>
      <point x="447" y="339" type="qcurve"/>
      <point x="447" y="339"/>
    </contour>
    <contour>
      <point x="481" y="336" type="qcurve"/>
      <point x="481" y="336"/>
      <point x="481" y="336" type="qcurve"/>
      <point x="481" y="336"/>
      <point x="481" y="336" type="qcurve"/>
      <point x="481" y="336"/>
    </contour>
    <contour>
      <point x="481" y="334" type="qcurve"/>
      <point x="481" y="334"/>
      <point x="481" y="334" type="qcurve"/>
      <point x="481" y="334"/>
      <point x="481" y="334" type="qcurve"/>
      <point x="481" y="334"/>
      <point x="481" y="334" type="qcurve"/>
      <point x="481" y="334"/>
    </contour>
    <contour>
      <point x="82" y="286" type="line" smooth="yes"/>
      <point x="94" y="340"/>
      <point x="112" y="383" type="qcurve"/>
      <point x="132" y="426"/>
      <point x="159" y="456" type="qcurve" smooth="yes"/>
      <point x="188" y="488"/>
      <point x="226" y="503" type="qcurve"/>
      <point x="265" y="520"/>
      <point x="315" y="520" type="qcurve" smooth="yes"/>
      <point x="354" y="520"/>
      <point x="385" y="506" type="qcurve"/>
      <point x="416" y="493"/>
      <point x="437" y="468" type="qcurve"/>
      <point x="460" y="444"/>
      <point x="470" y="409" type="qcurve"/>
      <point x="481" y="378"/>
      <point x="481" y="339" type="qcurve"/>
      <point x="481" y="339"/>
      <point x="481" y="339" type="qcurve"/>
      <point x="481" y="339"/>
      <point x="481" y="339" type="qcurve"/>
      <point x="481" y="339"/>
      <point x="481" y="338" type="qcurve"/>
      <point x="481" y="338"/>
      <point x="481" y="338" type="qcurve"/>
      <point x="481" y="338"/>
      <point x="481" y="338" type="qcurve"/>
      <point x="481" y="338"/>
      <point x="481" y="338" type="qcurve"/>
      <point x="481" y="338"/>
      <point x="481" y="338" type="qcurve"/>
      <point x="481" y="338"/>
      <point x="481" y="338" type="qcurve"/>
      <point x="481" y="338"/>
      <point x="481" y="338" type="qcurve"/>
      <point x="481" y="338"/>
      <point x="481" y="338" type="qcurve"/>
      <point x="481" y="338"/>
      <point x="481" y="338" type="qcurve"/>
      <point x="481" y="338"/>
      <point x="481" y="338" type="qcurve"/>
      <point x="481" y="338"/>
      <point x="481" y="337" type="qcurve"/>
      <point x="481" y="337"/>
      <point x="481" y="337" type="qcurve"/>
      <point x="481" y="337"/>
      <point x="481" y="337" type="qcurve"/>
      <point x="481" y="337"/>
      <point x="481" y="337" type="qcurve"/>
      <point x="481" y="337"/>
      <point x="481" y="337" type="qcurve"/>
      <point x="481" y="337"/>
      <point x="481" y="337" type="qcurve"/>
      <point x="481" y="337"/>
      <point x="481" y="337" type="qcurve"/>
      <point x="481" y="337"/>
      <point x="481" y="336" type="qcurve"/>
      <point x="481" y="336"/>
      <point x="481" y="336" type="qcurve"/>
      <point x="481" y="332" type="line"/>
      <point x="481" y="332"/>
      <point x="481" y="332" type="qcurve"/>
      <point x="481" y="332"/>
      <point x="481" y="332" type="qcurve"/>
      <point x="481" y="332"/>
      <point x="481" y="332" type="qcurve"/>
      <point x="481" y="332"/>
      <point x="481" y="332" type="qcurve"/>
      <point x="481" y="332"/>
      <point x="481" y="332" type="qcurve"/>
      <point x="481" y="332"/>
      <point x="481" y="331" type="qcurve"/>
      <point x="481" y="331"/>
      <point x="481" y="331" type="qcurve"/>
      <point x="481" y="331"/>
      <point x="481" y="331" type="qcurve"/>
      <point x="481" y="331"/>
      <point x="481" y="331" type="qcurve"/>
      <point x="481" y="331"/>
      <point x="481" y="331" type="qcurve"/>
      <point x="481" y="331"/>
      <point x="481" y="331" type="qcurve"/>
      <point x="481" y="331"/>
      <point x="481" y="331" type="qcurve"/>
      <point x="481" y="331"/>
      <point x="481" y="330" type="qcurve"/>
      <point x="481" y="330"/>
      <point x="481" y="330" type="qcurve"/>
      <point x="481" y="330"/>
      <point x="481" y="330" type="qcurve"/>
      <point x="481" y="330"/>
      <point x="481" y="330" type="qcurve"/>
      <point x="481" y="330"/>
      <point x="481" y="330" type="qcurve"/>
      <point x="481" y="330"/>
      <point x="481" y="330" type="qcurve"/>
      <point x="481" y="330"/>
      <point x="481" y="330" type="qcurve"/>
      <point x="481" y="330"/>
      <point x="481" y="329" type="qcurve"/>
      <point x="481" y="329"/>
      <point x="481" y="329" type="qcurve"/>
      <point x="481" y="329"/>
      <point x="481" y="329" type="qcurve"/>
      <point x="481" y="329"/>
      <point x="481" y="329" type="qcurve"/>
      <point x="481" y="327" type="line"/>
      <point x="481" y="327"/>
      <point x="481" y="327" type="qcurve"/>
      <point x="481" y="327"/>
      <point x="481" y="327" type="qcurve"/>
      <point x="481" y="327"/>
      <point x="481" y="326" type="qcurve"/>
      <point x="481" y="326"/>
      <point x="481" y="326" type="qcurve"/>
      <point x="481" y="326"/>
      <point x="481" y="326" type="qcurve"/>
      <point x="481" y="326"/>
      <point x="481" y="326" type="qcurve"/>
      <point x="481" y="326"/>
      <point x="481" y="326" type="qcurve"/>
      <point x="481" y="325" type="line" smooth="yes"/>
      <point x="481" y="264"/>
      <point x="466" y="205" type="qcurve"/>
      <point x="452" y="143"/>
      <point x="419" y="95" type="qcurve" smooth="yes"/>
      <point x="388" y="48"/>
      <point x="340" y="18" type="qcurve" smooth="yes"/>
      <point x="294" y="-12"/>
      <point x="231" y="-12" type="qcurve" smooth="yes"/>
      <point x="172" y="-12"/>
      <point x="133" y="15" type="qcurve" smooth="yes"/>
      <point x="94" y="43"/>
      <point x="80" y="91" type="qcurve"/>
      <point x="77" y="91" type="line"/>
      <point x="19" y="-200" type="line"/>
      <point x="-15" y="-200" type="line"/>
    </contour>
    <contour>
      <point x="447" y="326" type="qcurve"/>
      <point x="447" y="326"/>
      <point x="447" y="326" type="qcurve"/>
      <point x="447" y="326"/>
      <point x="447" y="326" type="qcurve"/>
      <point x="447" y="326"/>
    </contour>
  </outline>
</glyph>
<glyph name="Njecyr" format="2">
  <advance width="1008"/>
  <unicode hex="040A"/>
  <outline>
    <contour>
      <point x="468" y="0" type="line"/>
      <point x="539" y="354" type="line"/>
      <point x="157" y="354" type="line"/>
      <point x="86" y="0" type="line"/>
      <point x="50" y="0" type="line"/>
      <point x="190" y="698" type="line"/>
      <point x="226" y="698" type="line"/>
      <point x="163" y="386" type="line"/>
      <point x="545" y="386" type="line"/>
      <point x="608" y="698" type="line"/>
      <point x="644" y="698" type="line"/>
      <point x="581" y="386" type="line"/>
      <point x="782" y="386" type="line"/>
      <point x="782" y="386"/>
      <point x="782" y="386" type="qcurve"/>
      <point x="782" y="386"/>
      <point x="782" y="386" type="qcurve"/>
      <point x="782" y="386"/>
      <point x="782" y="386" type="qcurve"/>
      <point x="783" y="386" type="line"/>
      <point x="783" y="386"/>
      <point x="783" y="386" type="qcurve"/>
      <point x="783" y="386"/>
      <point x="783" y="386" type="qcurve"/>
      <point x="783" y="386"/>
      <point x="783" y="386" type="qcurve"/>
      <point x="784" y="386" type="line"/>
      <point x="784" y="386"/>
      <point x="784" y="386" type="qcurve"/>
      <point x="784" y="386"/>
      <point x="784" y="386" type="qcurve"/>
      <point x="786" y="386" type="line" smooth="yes"/>
      <point x="866" y="386"/>
      <point x="903" y="343" type="qcurve" smooth="yes"/>
      <point x="942" y="299"/>
      <point x="942" y="229" type="qcurve" smooth="yes"/>
      <point x="942" y="116"/>
      <point x="885" y="58" type="qcurve" smooth="yes"/>
      <point x="828" y="0"/>
      <point x="723" y="0" type="qcurve" smooth="yes"/>
    </contour>
    <contour>
      <point x="727" y="32" type="line" smooth="yes"/>
      <point x="903" y="32"/>
      <point x="906" y="228" type="qcurve"/>
      <point x="906" y="234" type="line"/>
      <point x="906" y="234"/>
      <point x="906" y="234" type="qcurve"/>
      <point x="906" y="234"/>
      <point x="906" y="234" type="qcurve"/>
      <point x="906" y="234"/>
      <point x="906" y="234" type="qcurve"/>
      <point x="906" y="234"/>
      <point x="906" y="234" type="qcurve"/>
      <point x="906" y="234"/>
      <point x="906" y="234" type="qcurve"/>
      <point x="906" y="234"/>
      <point x="906" y="234" type="qcurve"/>
      <point x="906" y="234"/>
      <point x="906" y="235" type="qcurve"/>
      <point x="906" y="235"/>
      <point x="906" y="235" type="qcurve"/>
      <point x="906" y="235"/>
      <point x="906" y="235" type="qcurve"/>
      <point x="906" y="235"/>
      <point x="906" y="235" type="qcurve"/>
      <point x="906" y="235"/>
      <point x="906" y="235" type="qcurve"/>
      <point x="906" y="235"/>
      <point x="906" y="235" type="qcurve"/>
      <point x="906" y="235"/>
      <point x="906" y="235" type="qcurve"/>
      <point x="906" y="235"/>
      <point x="906" y="235" type="qcurve"/>
      <point x="906" y="235"/>
      <point x="906" y="236" type="qcurve"/>
      <point x="906" y="236"/>
      <point x="906" y="236" type="qcurve"/>
      <point x="906" y="237" type="line"/>
      <point x="906" y="237"/>
      <point x="906" y="237" type="qcurve"/>
      <point x="906" y="237"/>
      <point x="906" y="237" type="qcurve"/>
      <point x="906" y="289"/>
      <point x="876" y="320" type="qcurve"/>
      <point x="846" y="354"/>
      <point x="779" y="354" type="qcurve" smooth="yes"/>
      <point x="575" y="354" type="line"/>
      <point x="511" y="32" type="line"/>
    </contour>
  </outline>
</glyph>
<glyph name="Icyr" format="2">
  <advance width="681"/>
  <unicode hex="0418"/>
  <outline>
    <contour>
      <point x="493" y="0" type="line"/>
      <point x="594" y="504" type="line"/>
      <point x="625" y="640" type="line"/>
      <point x="622" y="640" type="line"/>
      <point x="535" y="531" type="line"/>
      <point x="82" y="0" type="line"/>
      <point x="50" y="0" type="line"/>
      <point x="190" y="698" type="line"/>
      <point x="225" y="698" type="line"/>
      <point x="124" y="194" type="line"/>
      <point x="93" y="58" type="line"/>
      <point x="96" y="58" type="line"/>
      <point x="184" y="167" type="line"/>
      <point x="636" y="698" type="line"/>
      <point x="668" y="698" type="line"/>
      <point x="528" y="0" type="line"/>
    </contour>
  </outline>
</glyph>
<glyph name="Ucyr" format="2">
  <advance width="555"/>
  <unicode hex="0423"/>
  <outline>
    <contour>
      <point x="88" y="0" type="line"/>
      <point x="94" y="32" type="line"/>
      <point x="185" y="32" type="line"/>
      <point x="258" y="152" type="line"/>
      <point x="114" y="698" type="line"/>
      <point x="150" y="698" type="line"/>
      <point x="237" y="371" type="line"/>
      <point x="281" y="196" type="line"/>
      <point x="284" y="196" type="line"/>
      <point x="580" y="698" type="line"/>
      <point x="618" y="698" type="line"/>
      <point x="224" y="34" type="line" smooth="yes"/>
      <point x="212" y="14"/>
      <point x="199" y="7" type="qcurve" smooth="yes"/>
      <point x="186" y="0"/>
      <point x="165" y="0" type="qcurve" smooth="yes"/>
    </contour>
  </outline>
</glyph>
<glyph name="Tsecyr" format="2">
  <advance width="691"/>
  <unicode hex="0426"/>
  <outline>
    <contour>
      <point x="535" y="-150" type="line"/>
      <point x="565" y="0" type="line"/>
      <point x="50" y="0" type="line"/>
      <point x="190" y="698" type="line"/>
      <point x="226" y="698" type="line"/>
      <point x="93" y="32" type="line"/>
      <point x="482" y="32" type="line"/>
      <point x="616" y="698" type="line"/>
      <point x="652" y="698" type="line"/>
      <point x="518" y="32" type="line"/>
      <point x="606" y="32" type="line"/>
      <point x="569" y="-150" type="line"/>
    </contour>
  </outline>
</glyph>
<glyph name="Shchacyr" format="2">
  <advance width="922"/>
  <unicode hex="0429"/>
  <outline>
    <contour>
      <point x="763" y="-150" type="line"/>
      <point x="793" y="0" type="line"/>
      <point x="50" y="0" type="line"/>
      <point x="190" y="698" type="line"/>
      <point x="226" y="698" type="line"/>
      <point x="93" y="32" type="line"/>
      <point x="385" y="32" type="line"/>
      <point x="518" y="698" type="line"/>
      <point x="554" y="698" type="line"/>
      <point x="421" y="32" type="line"/>
      <point x="712" y="32" type="line"/>
      <point x="846" y="698" type="line"/>
      <point x="882" y="698" type="line"/>
      <point x="748" y="32" type="line"/>
      <point x="834" y="32" type="line"/>
      <point x="797" y="-150" type="line"/>
    </contour>
  </outline>
</glyph>
<glyph name="hardcyr" format="2">
  <advance width="552"/>
  <unicode hex="044A"/>
  <outline>
    <contour>
      <point x="117" y="0" type="line"/>
      <point x="213" y="478" type="line"/>
      <point x="73" y="478" type="line"/>
      <point x="79" y="508" type="line"/>
      <point x="253" y="508" type="line"/>
      <point x="212" y="301" type="line"/>
      <point x="347" y="301" type="line" smooth="yes"/>
      <point x="422" y="301"/>
      <point x="454" y="271" type="qcurve" smooth="yes"/>
      <point x="486" y="242"/>
      <point x="486" y="186" type="qcurve" smooth="yes"/>
      <point x="486" y="112"/>
      <point x="448" y="62" type="qcurve" smooth="yes"/>
      <point x="402" y="0"/>
      <point x="304" y="0" type="qcurve" smooth="yes"/>
    </contour>
    <contour>
      <point x="305" y="31" type="line"/>
      <point x="371" y="32"/>
      <point x="404" y="60" type="qcurve" smooth="yes"/>
      <point x="452" y="102"/>
      <point x="452" y="186" type="qcurve" smooth="yes"/>
      <point x="452" y="228"/>
      <point x="428" y="249" type="qcurve" smooth="yes"/>
      <point x="404" y="270"/>
      <point x="342" y="270" type="qcurve" smooth="yes"/>
      <point x="206" y="270" type="line"/>
      <point x="157" y="31" type="line"/>
    </contour>
  </outline>
</glyph>
<glyph name="yacyr" format="2">
  <advance width="502"/>
  <unicode hex="044F"/>
  <outline>
    <contour>
      <point x="315" y="0" type="line"/>
      <point x="357" y="209" type="line"/>
      <point x="228" y="209" type="line"/>
      <point x="90" y="30" type="line"/>
      <point x="70" y="0"/>
      <point x="34" y="0" type="qcurve" smooth="yes"/>
      <point x="-13" y="0" type="line"/>
      <point x="-7" y="31" type="line"/>
      <point x="50" y="31" type="line"/>
      <point x="169" y="185" type="line" smooth="yes"/>
      <point x="186" y="206"/>
      <point x="204" y="209" type="qcurve"/>
      <point x="205" y="212" type="line"/>
      <point x="82" y="221"/>
      <point x="82" y="326" type="qcurve" smooth="yes"/>
      <point x="82" y="398"/>
      <point x="120" y="447" type="qcurve" smooth="yes"/>
      <point x="168" y="508"/>
      <point x="264" y="508" type="qcurve" smooth="yes"/>
      <point x="450" y="508" type="line"/>
      <point x="349" y="0" type="line"/>
    </contour>
    <contour>
      <point x="410" y="477" type="line"/>
      <point x="262" y="477" type="line" smooth="yes"/>
      <point x="196" y="477"/>
      <point x="163" y="447" type="qcurve" smooth="yes"/>
      <point x="130" y="417"/>
      <point x="122" y="378" type="qcurve"/>
      <point x="116" y="354"/>
      <point x="116" y="327" type="qcurve" smooth="yes"/>
      <point x="116" y="282"/>
      <point x="140" y="261" type="qcurve" smooth="yes"/>
      <point x="164" y="240"/>
      <point x="226" y="240" type="qcurve" smooth="yes"/>
      <point x="363" y="240" type="line"/>
    </contour>
  </outline>
</glyph>
<glyph name="jecyr" format="2">
  <advance width="234"/>
  <unicode hex="0458"/>
  <outline>
    <contour>
      <point x="201" y="664" type="qcurve" smooth="yes"/>
      <point x="175" y="664"/>
      <point x="175" y="685" type="qcurve" smooth="yes"/>
      <point x="175" y="726"/>
      <point x="211" y="726" type="qcurve" smooth="yes"/>
      <point x="237" y="726"/>
      <point x="237" y="707" type="qcurve"/>
      <point x="237" y="707"/>
      <point x="237" y="707" type="qcurve"/>
      <point x="237" y="707"/>
      <point x="237" y="707" type="qcurve"/>
      <point x="237" y="707"/>
      <point x="237" y="707" type="qcurve"/>
      <point x="237" y="707"/>
      <point x="237" y="707" type="qcurve"/>
      <point x="237" y="707"/>
      <point x="237" y="707" type="qcurve"/>
      <point x="237" y="707"/>
      <point x="237" y="707" type="qcurve"/>
      <point x="237" y="707"/>
      <point x="237" y="706" type="qcurve"/>
      <point x="237" y="706"/>
      <point x="237" y="706" type="qcurve"/>
      <point x="237" y="700" type="line"/>
      <point x="234" y="688" type="line"/>
      <point x="231" y="664"/>
    </contour>
    <contour>
      <point x="-76" y="-200" type="line"/>
      <point x="-69" y="-169" type="line"/>
      <point x="15" y="-169" type="line"/>
      <point x="151" y="508" type="line"/>
      <point x="185" y="508" type="line"/>
      <point x="53" y="-151" type="line" smooth="yes"/>
      <point x="48" y="-178"/>
      <point x="36" y="-189" type="qcurve" smooth="yes"/>
      <point x="24" y="-200"/>
      <point x="-5" y="-200" type="qcurve" smooth="yes"/>
    </contour>
  </outline>
</glyph>
<glyph name="gehookcyr" format="2">
  <advance width="513"/>
  <unicode hex="0495"/>
  <outline>
    <contour>
      <point x="203" y="-200" type="line"/>
      <point x="209" y="-169" type="line"/>
      <point x="294" y="-169" type="line"/>
      <point x="340" y="-139"/>
      <point x="368" y="1" type="qcurve" smooth="yes"/>
      <point x="389" y="104" type="line" smooth="yes"/>
      <point x="396" y="140"/>
      <point x="396" y="168" type="qcurve"/>
      <point x="393" y="250"/>
      <point x="288" y="250" type="qcurve" smooth="yes"/>
      <point x="206" y="250"/>
      <point x="156" y="198" type="qcurve"/>
      <point x="114" y="150"/>
      <point x="105" y="102" type="qcurve" smooth="yes"/>
      <point x="84" y="0" type="line"/>
      <point x="50" y="0" type="line"/>
      <point x="151" y="508" type="line"/>
      <point x="435" y="508" type="line"/>
      <point x="429" y="477" type="line"/>
      <point x="180" y="477" type="line"/>
      <point x="122" y="189" type="line"/>
      <point x="126" y="189" type="line"/>
      <point x="180" y="280"/>
      <point x="291" y="281" type="qcurve"/>
      <point x="294" y="281" type="line"/>
      <point x="294" y="281"/>
      <point x="294" y="281" type="qcurve"/>
      <point x="294" y="281"/>
      <point x="294" y="281" type="qcurve"/>
      <point x="294" y="281"/>
      <point x="294" y="281" type="qcurve"/>
      <point x="294" y="281"/>
      <point x="294" y="281" type="qcurve"/>
      <point x="296" y="281" type="line"/>
      <point x="296" y="281"/>
      <point x="296" y="281" type="qcurve"/>
      <point x="296" y="281"/>
      <point x="296" y="281" type="qcurve"/>
      <point x="296" y="281"/>
      <point x="296" y="281" type="qcurve"/>
      <point x="296" y="281"/>
      <point x="296" y="281" type="qcurve"/>
      <point x="297" y="281" type="line"/>
      <point x="297" y="281"/>
      <point x="297" y="281" type="qcurve"/>
      <point x="297" y="281"/>
      <point x="297" y="281" type="qcurve"/>
      <point x="300" y="281" type="line" smooth="yes"/>
      <point x="363" y="281"/>
      <point x="396" y="250" type="qcurve"/>
      <point x="430" y="220"/>
      <point x="430" y="172" type="qcurve" smooth="yes"/>
      <point x="430" y="138"/>
      <point x="423" y="105" type="qcurve" smooth="yes"/>
      <point x="400" y="-8" type="line" smooth="yes"/>
      <point x="378" y="-120"/>
      <point x="346" y="-160" type="qcurve" smooth="yes"/>
      <point x="314" y="-200"/>
      <point x="266" y="-200" type="qcurve" smooth="yes"/>
    </contour>
  </outline>
</glyph>
<glyph name="ustraightcyr" format="2">
  <advance width="466"/>
  <unicode hex="04AF"/>
  <outline>
    <contour>
      <point x="122" y="-200" type="line"/>
      <point x="162" y="0" type="line"/>
      <point x="72" y="508" type="line"/>
      <point x="105" y="508" type="line"/>
      <point x="146" y="277"/>
      <point x="185" y="45" type="qcurve"/>
      <point x="188" y="45" type="line"/>
      <point x="318" y="277"/>
      <point x="450" y="508" type="qcurve"/>
      <point x="487" y="508" type="line"/>
      <point x="196" y="0" type="line"/>
      <point x="156" y="-200" type="line"/>
    </contour>
  </outline>
</glyph>
<glyph name="Zhebrevecyr" format="2">
  <advance width="881"/>
  <unicode hex="04C1"/>
  <outline>
    <contour>
      <point x="540" y="781" type="qcurve" smooth="yes"/>
      <point x="502" y="781"/>
      <point x="478" y="799" type="qcurve"/>
      <point x="456" y="818"/>
      <point x="443" y="852" type="qcurve" smooth="yes"/>
      <point x="427" y="896" type="line"/>
      <point x="455" y="908" type="line"/>
      <point x="478" y="839" type="line"/>
      <point x="500" y="808"/>
      <point x="542" y="808" type="qcurve" smooth="yes"/>
      <point x="590" y="808"/>
      <point x="619" y="839" type="qcurve"/>
      <point x="668" y="908" type="line"/>
      <point x="694" y="894" type="line"/>
      <point x="662" y="852" type="line" smooth="yes"/>
      <point x="636" y="818"/>
      <point x="607" y="799" type="qcurve" smooth="yes"/>
      <point x="579" y="781"/>
    </contour>
    <contour>
      <point x="738" y="0" type="line" smooth="yes"/>
      <point x="708" y="0"/>
      <point x="698" y="33" type="qcurve"/>
      <point x="595" y="339" type="line"/>
      <point x="467" y="339" type="line"/>
      <point x="400" y="0" type="line"/>
      <point x="364" y="0" type="line"/>
      <point x="431" y="339" type="line"/>
      <point x="304" y="339" type="line"/>
      <point x="81" y="30" type="line" smooth="yes"/>
      <point x="70" y="14"/>
      <point x="57" y="7" type="qcurve"/>
      <point x="45" y="0"/>
      <point x="24" y="0" type="qcurve" smooth="yes"/>
      <point x="-22" y="0" type="line"/>
      <point x="-15" y="32" type="line"/>
      <point x="41" y="32" type="line"/>
      <point x="250" y="321" type="line" smooth="yes"/>
      <point x="262" y="338"/>
      <point x="272" y="344" type="qcurve"/>
      <point x="282" y="352"/>
      <point x="297" y="353" type="qcurve"/>
      <point x="298" y="355" type="line"/>
      <point x="288" y="358"/>
      <point x="280" y="366" type="qcurve"/>
      <point x="274" y="374"/>
      <point x="267" y="394" type="qcurve"/>
      <point x="184" y="666" type="line"/>
      <point x="125" y="666" type="line"/>
      <point x="132" y="698" type="line"/>
      <point x="179" y="698" type="line" smooth="yes"/>
      <point x="210" y="698"/>
      <point x="219" y="665" type="qcurve"/>
      <point x="310" y="371" type="line"/>
      <point x="438" y="371" type="line"/>
      <point x="504" y="698" type="line"/>
      <point x="540" y="698" type="line"/>
      <point x="474" y="371" type="line"/>
      <point x="601" y="371" type="line"/>
      <point x="807" y="665" type="line"/>
      <point x="820" y="682"/>
      <point x="832" y="690" type="qcurve"/>
      <point x="846" y="698"/>
      <point x="865" y="698" type="qcurve" smooth="yes"/>
      <point x="912" y="698" type="line"/>
      <point x="906" y="666" type="line"/>
      <point x="847" y="666" type="line"/>
      <point x="656" y="394" type="line" smooth="yes"/>
      <point x="642" y="374"/>
      <point x="633" y="366" type="qcurve" smooth="yes"/>
      <point x="624" y="358"/>
      <point x="609" y="356" type="qcurve"/>
      <point x="608" y="353" type="line"/>
      <point x="620" y="352"/>
      <point x="626" y="344" type="qcurve"/>
      <point x="634" y="336"/>
      <point x="639" y="316" type="qcurve"/>
      <point x="734" y="32" type="line"/>
      <point x="793" y="32" type="line"/>
      <point x="787" y="0" type="line"/>
    </contour>
  </outline>
</glyph>
<glyph name="schwacyr" format="2">
  <advance width="506"/>
  <unicode hex="04D9"/>
  <outline>
    <contour>
      <point x="196" y="-12" type="qcurve" smooth="yes"/>
      <point x="126" y="-12"/>
      <point x="81" y="21" type="qcurve" smooth="yes"/>
      <point x="36" y="55"/>
      <point x="36" y="115" type="qcurve" smooth="yes"/>
      <point x="36" y="183"/>
      <point x="105" y="222" type="qcurve"/>
      <point x="180" y="272"/>
      <point x="411" y="278" type="qcurve"/>
      <point x="414" y="310"/>
      <point x="414" y="322" type="qcurve" smooth="yes"/>
      <point x="414" y="409"/>
      <point x="377" y="449" type="qcurve" smooth="yes"/>
      <point x="341" y="490"/>
      <point x="267" y="490" type="qcurve"/>
      <point x="267" y="490"/>
      <point x="267" y="490" type="qcurve"/>
      <point x="266" y="490"/>
      <point x="266" y="490" type="qcurve"/>
      <point x="266" y="490"/>
      <point x="266" y="490" type="qcurve"/>
      <point x="266" y="490"/>
      <point x="266" y="490" type="qcurve"/>
      <point x="266" y="490"/>
      <point x="266" y="490" type="qcurve"/>
      <point x="266" y="490"/>
      <point x="266" y="490" type="qcurve"/>
      <point x="266" y="490"/>
      <point x="266" y="490" type="qcurve"/>
      <point x="266" y="490"/>
      <point x="266" y="490" type="qcurve"/>
      <point x="266" y="490"/>
      <point x="265" y="490" type="qcurve"/>
      <point x="265" y="490"/>
      <point x="265" y="490" type="qcurve"/>
      <point x="265" y="490"/>
      <point x="265" y="490" type="qcurve"/>
      <point x="265" y="490"/>
      <point x="265" y="490" type="qcurve"/>
      <point x="265" y="490"/>
      <point x="265" y="490" type="qcurve"/>
      <point x="264" y="490" type="line"/>
      <point x="264" y="490"/>
      <point x="264" y="490" type="qcurve"/>
      <point x="263" y="490"/>
      <point x="263" y="490" type="qcurve"/>
      <point x="263" y="490"/>
      <point x="263" y="490" type="qcurve"/>
      <point x="263" y="490"/>
      <point x="263" y="490" type="qcurve"/>
      <point x="263" y="490"/>
      <point x="263" y="490" type="qcurve"/>
      <point x="207" y="490"/>
      <point x="162" y="460" type="qcurve" smooth="yes"/>
      <point x="117" y="430"/>
      <point x="85" y="375" type="qcurve"/>
      <point x="59" y="391" type="line"/>
      <point x="138" y="520"/>
      <point x="268" y="520" type="qcurve" smooth="yes"/>
      <point x="355" y="520"/>
      <point x="401" y="470" type="qcurve" smooth="yes"/>
      <point x="448" y="420"/>
      <point x="448" y="317" type="qcurve" smooth="yes"/>
      <point x="448" y="182"/>
      <point x="378" y="85" type="qcurve" smooth="yes"/>
      <point x="346" y="40"/>
      <point x="299" y="14" type="qcurve" smooth="yes"/>
      <point x="253" y="-12"/>
    </contour>
    <contour>
      <point x="199" y="18" type="qcurve" smooth="yes"/>
      <point x="277" y="18"/>
      <point x="331" y="76" type="qcurve" smooth="yes"/>
      <point x="387" y="136"/>
      <point x="403" y="230" type="qcurve"/>
      <point x="407" y="249" type="line"/>
      <point x="203" y="244"/>
      <point x="134" y="206" type="qcurve"/>
      <point x="71" y="174"/>
      <point x="71" y="114" type="qcurve" smooth="yes"/>
      <point x="71" y="70"/>
      <point x="103" y="44" type="qcurve" smooth="yes"/>
      <point x="136" y="18"/>
    </contour>
  </outline>
</glyph>
<glyph name="chedieresiscyr" format="2">
  <advance width="508"/>
  <unicode hex="04F5"/>
  <outline>
    <contour>
      <point x="215" y="636" type="qcurve" smooth="yes"/>
      <point x="190" y="636"/>
      <point x="190" y="657" type="qcurve" smooth="yes"/>
      <point x="190" y="662"/>
      <point x="193" y="673" type="qcurve" smooth="yes"/>
      <point x="196" y="685"/>
      <point x="202" y="691" type="qcurve"/>
      <point x="210" y="698"/>
      <point x="224" y="698" type="qcurve" smooth="yes"/>
      <point x="249" y="698"/>
      <point x="249" y="679" type="qcurve"/>
      <point x="249" y="679"/>
      <point x="249" y="679" type="qcurve"/>
      <point x="249" y="679"/>
      <point x="249" y="679" type="qcurve"/>
      <point x="249" y="679"/>
      <point x="249" y="678" type="qcurve"/>
      <point x="249" y="678"/>
      <point x="249" y="678" type="qcurve"/>
      <point x="249" y="678"/>
      <point x="249" y="678" type="qcurve"/>
      <point x="249" y="678"/>
      <point x="249" y="678" type="qcurve"/>
      <point x="249" y="678"/>
      <point x="249" y="678" type="qcurve"/>
      <point x="249" y="678"/>
      <point x="249" y="678" type="qcurve"/>
      <point x="249" y="677" type="line" smooth="yes"/>
      <point x="249" y="673"/>
      <point x="246" y="661" type="qcurve"/>
      <point x="244" y="651"/>
      <point x="237" y="643" type="qcurve"/>
      <point x="230" y="636"/>
    </contour>
    <contour>
      <point x="323" y="0" type="line"/>
      <point x="380" y="285" type="line"/>
      <point x="376" y="285" type="line"/>
      <point x="320" y="192"/>
      <point x="206" y="191" type="qcurve" smooth="yes"/>
      <point x="140" y="192"/>
      <point x="106" y="222" type="qcurve"/>
      <point x="72" y="254"/>
      <point x="72" y="300" type="qcurve" smooth="yes"/>
      <point x="72" y="336"/>
      <point x="79" y="367" type="qcurve" smooth="yes"/>
      <point x="107" y="508" type="line"/>
      <point x="141" y="508" type="line"/>
      <point x="111" y="360" type="line"/>
      <point x="106" y="331"/>
      <point x="106" y="305" type="qcurve"/>
      <point x="109" y="222"/>
      <point x="214" y="222" type="qcurve" smooth="yes"/>
      <point x="295" y="222"/>
      <point x="346" y="276" type="qcurve"/>
      <point x="391" y="327"/>
      <point x="397" y="372" type="qcurve"/>
      <point x="425" y="508" type="line"/>
      <point x="459" y="508" type="line"/>
      <point x="357" y="0" type="line"/>
    </contour>
    <contour>
      <point x="397" y="636" type="qcurve" smooth="yes"/>
      <point x="372" y="636"/>
      <point x="372" y="657" type="qcurve" smooth="yes"/>
      <point x="372" y="662"/>
      <point x="375" y="673" type="qcurve" smooth="yes"/>
      <point x="378" y="685"/>
      <point x="384" y="691" type="qcurve"/>
      <point x="392" y="698"/>
      <point x="406" y="698" type="qcurve" smooth="yes"/>
      <point x="431" y="698"/>
      <point x="431" y="679" type="qcurve"/>
      <point x="431" y="679"/>
      <point x="431" y="679" type="qcurve"/>
      <point x="431" y="679"/>
      <point x="431" y="679" type="qcurve"/>
      <point x="431" y="679"/>
      <point x="431" y="679" type="qcurve"/>
      <point x="431" y="679"/>
      <point x="431" y="679" type="qcurve"/>
      <point x="431" y="679"/>
      <point x="431" y="679" type="qcurve"/>
      <point x="431" y="679"/>
      <point x="431" y="679" type="qcurve"/>
      <point x="431" y="677" type="line" smooth="yes"/>
      <point x="431" y="673"/>
      <point x="428" y="661" type="qcurve"/>
      <point x="426" y="651"/>
      <point x="419" y="643" type="qcurve"/>
      <point x="412" y="636"/>
    </contour>
  </outline>
</glyph>
<glyph name="Ecircumflexhoi" format="2">
  <advance width="556"/>
  <unicode hex="1EC2"/>
  <outline>
    <contour>
      <point x="509" y="884" type="line"/>
      <point x="603" y="1005" type="line"/>
      <point x="469" y="1005" type="line"/>
      <point x="474" y="1032" type="line"/>
      <point x="600" y="1032" type="line"/>
      <point x="600" y="1032"/>
      <point x="600" y="1032" type="qcurve"/>
      <point x="600" y="1032"/>
      <point x="600" y="1032" type="qcurve"/>
      <point x="600" y="1032"/>
      <point x="600" y="1032" type="qcurve"/>
      <point x="600" y="1032"/>
      <point x="600" y="1032" type="qcurve"/>
      <point x="600" y="1032"/>
      <point x="600" y="1032" type="qcurve"/>
      <point x="601" y="1032" type="line"/>
      <point x="601" y="1032"/>
      <point x="601" y="1032" type="qcurve"/>
      <point x="601" y="1032"/>
      <point x="601" y="1032" type="qcurve"/>
      <point x="601" y="1032"/>
      <point x="601" y="1032" type="qcurve"/>
      <point x="601" y="1032"/>
      <point x="601" y="1032" type="qcurve"/>
      <point x="601" y="1032"/>
      <point x="601" y="1032" type="qcurve"/>
      <point x="601" y="1032"/>
      <point x="601" y="1032" type="qcurve"/>
      <point x="601" y="1032"/>
      <point x="601" y="1032" type="qcurve"/>
      <point x="605" y="1032" type="line" smooth="yes"/>
      <point x="621" y="1032"/>
      <point x="626" y="1026" type="qcurve"/>
      <point x="633" y="1021"/>
      <point x="633" y="1011" type="qcurve"/>
      <point x="633" y="1011"/>
      <point x="633" y="1011" type="qcurve"/>
      <point x="633" y="1011"/>
      <point x="633" y="1011" type="qcurve"/>
      <point x="633" y="1011"/>
      <point x="633" y="1011" type="qcurve"/>
      <point x="633" y="1011"/>
      <point x="633" y="1011" type="qcurve"/>
      <point x="633" y="1009" type="line"/>
      <point x="633" y="1009"/>
      <point x="633" y="1009" type="qcurve"/>
      <point x="633" y="1009"/>
      <point x="633" y="1009" type="qcurve"/>
      <point x="633" y="1009"/>
      <point x="633" y="1009" type="qcurve"/>
      <point x="633" y="1009"/>
      <point x="633" y="1009" type="qcurve"/>
      <point x="633" y="1009"/>
      <point x="633" y="1009" type="qcurve"/>
      <point x="633" y="1009"/>
      <point x="633" y="1009" type="qcurve"/>
      <point x="633" y="1007" type="line" smooth="yes"/>
      <point x="633" y="999"/>
      <point x="625" y="986" type="qcurve" smooth="yes"/>
      <point x="616" y="972"/>
      <point x="590" y="942" type="qcurve" smooth="yes"/>
      <point x="531" y="872" type="line"/>
    </contour>
    <contour>
      <point x="418" y="890" type="line"/>
      <point x="274" y="766" type="line"/>
      <point x="254" y="783" type="line"/>
      <point x="399" y="915" type="line"/>
      <point x="440" y="915" type="line"/>
      <point x="541" y="781" type="line"/>
      <point x="520" y="766" type="line"/>
    </contour>
    <contour>
      <point x="50" y="0" type="line"/>
      <point x="190" y="698" type="line"/>
      <point x="576" y="698" type="line"/>
      <point x="570" y="666" type="line"/>
      <point x="220" y="666" type="line"/>
      <point x="160" y="370" type="line"/>
      <point x="493" y="370" type="line"/>
      <point x="487" y="338" type="line"/>
      <point x="153" y="338" type="line"/>
      <point x="92" y="32" type="line"/>
      <point x="447" y="32" type="line"/>
      <point x="440" y="0" type="line"/>
    </contour>
  </outline>
</glyph>
<glyph name="ecircumflexhoi" format="2">
  <advance width="506"/>
  <unicode hex="1EC3"/>
  <outline>
    <contour>
      <point x="446" y="707" type="line"/>
      <point x="540" y="828" type="line"/>
      <point x="405" y="828" type="line"/>
      <point x="409" y="855" type="line"/>
      <point x="536" y="855" type="line"/>
      <point x="536" y="855"/>
      <point x="536" y="855" type="qcurve"/>
      <point x="536" y="855"/>
      <point x="536" y="855" type="qcurve"/>
      <point x="536" y="855"/>
      <point x="536" y="855" type="qcurve"/>
      <point x="536" y="855"/>
      <point x="537" y="855" type="qcurve"/>
      <point x="537" y="855"/>
      <point x="537" y="855" type="qcurve"/>
      <point x="537" y="855"/>
      <point x="537" y="855" type="qcurve"/>
      <point x="538" y="855" type="line"/>
      <point x="538" y="855"/>
      <point x="538" y="855" type="qcurve"/>
      <point x="538" y="855"/>
      <point x="538" y="855" type="qcurve"/>
      <point x="538" y="855"/>
      <point x="538" y="855" type="qcurve"/>
      <point x="538" y="855"/>
      <point x="539" y="855" type="qcurve"/>
      <point x="539" y="855"/>
      <point x="539" y="855" type="qcurve"/>
      <point x="539" y="855"/>
      <point x="539" y="855" type="qcurve"/>
      <point x="569" y="855"/>
      <point x="569" y="832" type="qcurve" smooth="yes"/>
      <point x="569" y="823"/>
      <point x="560" y="808" type="qcurve"/>
      <point x="554" y="799"/>
      <point x="467" y="694" type="qcurve"/>
    </contour>
    <contour>
      <point x="353" y="712" type="line"/>
      <point x="210" y="589" type="line"/>
      <point x="190" y="605" type="line"/>
      <point x="335" y="737" type="line"/>
      <point x="376" y="737" type="line"/>
      <point x="476" y="604" type="line"/>
      <point x="455" y="589" type="line"/>
    </contour>
    <contour>
      <point x="239" y="-12" type="qcurve" smooth="yes"/>
      <point x="152" y="-12"/>
      <point x="105" y="38" type="qcurve" smooth="yes"/>
      <point x="58" y="89"/>
      <point x="58" y="191" type="qcurve" smooth="yes"/>
      <point x="58" y="328"/>
      <point x="129" y="424" type="qcurve" smooth="yes"/>
      <point x="162" y="468"/>
      <point x="208" y="494" type="qcurve" smooth="yes"/>
      <point x="256" y="520"/>
      <point x="311" y="520" type="qcurve" smooth="yes"/>
      <point x="381" y="520"/>
      <point x="426" y="487" type="qcurve" smooth="yes"/>
      <point x="471" y="454"/>
      <point x="471" y="394" type="qcurve" smooth="yes"/>
      <point x="471" y="328"/>
      <point x="402" y="286" type="qcurve" smooth="yes"/>
      <point x="326" y="238"/>
      <point x="95" y="230" type="qcurve"/>
      <point x="92" y="198"/>
      <point x="92" y="187" type="qcurve" smooth="yes"/>
      <point x="92" y="19"/>
      <point x="240" y="19" type="qcurve" smooth="yes"/>
      <point x="300" y="19"/>
      <point x="345" y="49" type="qcurve" smooth="yes"/>
      <point x="391" y="80"/>
      <point x="421" y="134" type="qcurve"/>
      <point x="448" y="117" type="line"/>
      <point x="370" y="-12"/>
    </contour>
    <contour>
      <point x="99" y="259" type="line"/>
      <point x="306" y="265"/>
      <point x="373" y="304" type="qcurve"/>
      <point x="408" y="322"/>
      <point x="421" y="345" type="qcurve"/>
      <point x="435" y="367"/>
      <point x="435" y="391" type="qcurve"/>
      <point x="435" y="391"/>
      <point x="435" y="391" type="qcurve"/>
      <point x="435" y="391"/>
      <point x="435" y="392" type="qcurve"/>
      <point x="435" y="392"/>
      <point x="435" y="392" type="qcurve"/>
      <point x="435" y="392"/>
      <point x="435" y="392" type="qcurve"/>
      <point x="435" y="392"/>
      <point x="435" y="392" type="qcurve"/>
      <point x="435" y="392"/>
      <point x="435" y="392" type="qcurve"/>
      <point x="435" y="392"/>
      <point x="435" y="392" type="qcurve"/>
      <point x="435" y="392"/>
      <point x="435" y="392" type="qcurve"/>
      <point x="435" y="392"/>
      <point x="435" y="392" type="qcurve"/>
      <point x="435" y="394" type="line"/>
      <point x="435" y="394"/>
      <point x="435" y="394" type="qcurve"/>
      <point x="435" y="394"/>
      <point x="435" y="394" type="qcurve"/>
      <point x="435" y="394"/>
      <point x="435" y="394" type="qcurve"/>
      <point x="435" y="394"/>
      <point x="435" y="395" type="qcurve"/>
      <point x="435" y="395"/>
      <point x="435" y="395" type="qcurve"/>
      <point x="435" y="395"/>
      <point x="435" y="395" type="qcurve"/>
      <point x="435" y="395"/>
      <point x="435" y="395" type="qcurve"/>
      <point x="435" y="395"/>
      <point x="435" y="395" type="qcurve"/>
      <point x="435" y="395"/>
      <point x="435" y="395" type="qcurve"/>
      <point x="435" y="395"/>
      <point x="435" y="395" type="qcurve"/>
      <point x="435" y="395"/>
      <point x="435" y="395" type="qcurve"/>
      <point x="435" y="395"/>
      <point x="435" y="395" type="qcurve"/>
      <point x="435" y="397" type="line"/>
      <point x="435" y="397"/>
      <point x="435" y="397" type="qcurve"/>
      <point x="435" y="397"/>
      <point x="435" y="397" type="qcurve"/>
      <point x="435" y="397"/>
      <point x="435" y="397" type="qcurve"/>
      <point x="435" y="439"/>
      <point x="404" y="464" type="qcurve" smooth="yes"/>
      <point x="372" y="490"/>
      <point x="307" y="490" type="qcurve"/>
      <point x="307" y="490"/>
      <point x="307" y="490" type="qcurve"/>
      <point x="307" y="490"/>
      <point x="307" y="490" type="qcurve"/>
      <point x="307" y="490"/>
      <point x="307" y="490" type="qcurve"/>
      <point x="307" y="490"/>
      <point x="306" y="490" type="qcurve"/>
      <point x="306" y="490"/>
      <point x="306" y="490" type="qcurve"/>
      <point x="306" y="490"/>
      <point x="306" y="490" type="qcurve"/>
      <point x="306" y="490"/>
      <point x="306" y="490" type="qcurve"/>
      <point x="306" y="490"/>
      <point x="306" y="490" type="qcurve"/>
      <point x="305" y="490" type="line"/>
      <point x="305" y="490"/>
      <point x="305" y="490" type="qcurve"/>
      <point x="304" y="490"/>
      <point x="304" y="490" type="qcurve"/>
      <point x="304" y="490"/>
      <point x="304" y="490" type="qcurve"/>
      <point x="304" y="490"/>
      <point x="304" y="490" type="qcurve"/>
      <point x="304" y="490"/>
      <point x="304" y="490" type="qcurve"/>
      <point x="229" y="490"/>
      <point x="175" y="432" type="qcurve" smooth="yes"/>
      <point x="121" y="374"/>
      <point x="103" y="279" type="qcurve" smooth="yes"/>
    </contour>
  </outline>
</glyph>
<glyph name="quotedblright" format="2">
  <advance width="417"/>
  <unicode hex="201D"/>
  <outline>
    <contour>
      <point x="281" y="538" type="line"/>
      <point x="365" y="614"/>
      <point x="381" y="677" type="qcurve"/>
      <point x="354" y="680"/>
      <point x="353" y="700" type="qcurve"/>
      <point x="354" y="706"/>
      <point x="354" y="710" type="qcurve"/>
      <point x="355" y="713"/>
      <point x="355" y="715" type="qcurve"/>
      <point x="355" y="715"/>
      <point x="355" y="715" type="qcurve"/>
      <point x="355" y="715"/>
      <point x="355" y="716" type="qcurve"/>
      <point x="355" y="716"/>
      <point x="355" y="716" type="qcurve"/>
      <point x="355" y="716"/>
      <point x="355" y="716" type="qcurve"/>
      <point x="355" y="716"/>
      <point x="355" y="716" type="qcurve"/>
      <point x="355" y="717" type="line"/>
      <point x="356" y="720"/>
      <point x="356" y="721" type="qcurve"/>
      <point x="358" y="732"/>
      <point x="366" y="741" type="qcurve" smooth="yes"/>
      <point x="374" y="750"/>
      <point x="394" y="750" type="qcurve" smooth="yes"/>
      <point x="425" y="750"/>
      <point x="425" y="727" type="qcurve"/>
      <point x="425" y="727"/>
      <point x="425" y="727" type="qcurve"/>
      <point x="425" y="727"/>
      <point x="425" y="727" type="qcurve"/>
      <point x="425" y="727"/>
      <point x="425" y="727" type="qcurve"/>
      <point x="425" y="727"/>
      <point x="425" y="727" type="qcurve"/>
      <point x="425" y="727"/>
      <point x="425" y="726" type="qcurve"/>
      <point x="425" y="726"/>
      <point x="425" y="726" type="qcurve"/>
      <point x="425" y="726"/>
      <point x="425" y="726" type="qcurve"/>
      <point x="425" y="726"/>
      <point x="425" y="726" type="qcurve"/>
      <point x="425" y="726"/>
      <point x="425" y="725" type="qcurve"/>
      <point x="425" y="725"/>
      <point x="425" y="725" type="qcurve"/>
      <point x="425" y="725"/>
      <point x="425" y="725" type="qcurve"/>
      <point x="425" y="725"/>
      <point x="425" y="725" type="qcurve"/>
      <point x="425" y="723" type="line" smooth="yes"/>
      <point x="425" y="718"/>
      <point x="423" y="711" type="qcurve"/>
      <point x="422" y="704" type="line"/>
      <point x="413" y="662"/>
      <point x="383" y="617" type="qcurve" smooth="yes"/>
      <point x="354" y="572"/>
      <point x="312" y="538" type="qcurve"/>
    </contour>
    <contour>
      <point x="113" y="538" type="line"/>
      <point x="197" y="614"/>
      <point x="213" y="677" type="qcurve"/>
      <point x="186" y="680"/>
      <point x="185" y="700" type="qcurve"/>
      <point x="186" y="706"/>
      <point x="186" y="710" type="qcurve"/>
      <point x="187" y="713"/>
      <point x="187" y="715" type="qcurve"/>
      <point x="187" y="715"/>
      <point x="187" y="715" type="qcurve"/>
      <point x="187" y="715"/>
      <point x="187" y="715" type="qcurve"/>
      <point x="187" y="715"/>
      <point x="187" y="715" type="qcurve"/>
      <point x="187" y="715"/>
      <point x="187" y="715" type="qcurve"/>
      <point x="187" y="715"/>
      <point x="187" y="715" type="qcurve"/>
      <point x="187" y="715"/>
      <point x="187" y="715" type="qcurve"/>
      <point x="187" y="717" type="line"/>
      <point x="188" y="720"/>
      <point x="188" y="721" type="qcurve"/>
      <point x="190" y="732"/>
      <point x="198" y="741" type="qcurve" smooth="yes"/>
      <point x="206" y="750"/>
      <point x="226" y="750" type="qcurve" smooth="yes"/>
      <point x="257" y="750"/>
      <point x="257" y="727" type="qcurve" smooth="yes"/>
      <point x="257" y="726" type="line"/>
      <point x="257" y="726"/>
      <point x="257" y="726" type="qcurve"/>
      <point x="257" y="726"/>
      <point x="257" y="726" type="qcurve"/>
      <point x="257" y="726"/>
      <point x="257" y="726" type="qcurve"/>
      <point x="257" y="726"/>
      <point x="257" y="726" type="qcurve"/>
      <point x="257" y="723" type="line" smooth="yes"/>
      <point x="257" y="718"/>
      <point x="255" y="711" type="qcurve"/>
      <point x="254" y="704" type="line"/>
      <point x="245" y="662"/>
      <point x="215" y="617" type="qcurve" smooth="yes"/>
      <point x="186" y="572"/>
      <point x="144" y="538" type="qcurve"/>
    </contour>
    <contour>
      <point x="187" y="716" type="qcurve"/>
      <point x="187" y="716"/>
      <point x="187" y="716" type="qcurve"/>
      <point x="187" y="716"/>
    </contour>
    <contour>
      <point x="187" y="715" type="qcurve"/>
      <point x="187" y="715"/>
      <point x="187" y="715" type="qcurve"/>
      <point x="187" y="715"/>
      <point x="187" y="715" type="qcurve"/>
      <point x="187" y="715"/>
    </contour>
  </outline>
</glyph>
<glyph name="bullet" format="2">
  <advance width="340"/>
  <unicode hex="2022"/>
  <outline>
    <contour>
      <point x="160" y="210" type="qcurve" smooth="yes"/>
      <point x="80" y="210"/>
      <point x="80" y="272" type="qcurve" smooth="yes"/>
      <point x="80" y="284"/>
      <point x="87" y="319" type="qcurve" smooth="yes"/>
      <point x="102" y="398"/>
      <point x="192" y="398" type="qcurve" smooth="yes"/>
      <point x="272" y="398"/>
      <point x="272" y="336" type="qcurve" smooth="yes"/>
      <point x="272" y="324"/>
      <point x="265" y="289" type="qcurve"/>
      <point x="252" y="210"/>
    </contour>
  </outline>
</glyph>
<glyph name="perthousand" format="2">
  <advance width="1240"/>
  <unicode hex="2030"/>
  <outline>
    <contour>
      <point x="237" y="324" type="qcurve" smooth="yes"/>
      <point x="181" y="324"/>
      <point x="150" y="362" type="qcurve"/>
      <point x="120" y="401"/>
      <point x="119" y="459" type="qcurve"/>
      <point x="120" y="554"/>
      <point x="159" y="626" type="qcurve" smooth="yes"/>
      <point x="207" y="710"/>
      <point x="299" y="710" type="qcurve" smooth="yes"/>
      <point x="356" y="710"/>
      <point x="386" y="672" type="qcurve"/>
      <point x="417" y="635"/>
      <point x="417" y="579" type="qcurve"/>
      <point x="417" y="579"/>
      <point x="417" y="579" type="qcurve"/>
      <point x="417" y="579"/>
      <point x="417" y="579" type="qcurve"/>
      <point x="417" y="579"/>
      <point x="417" y="579" type="qcurve"/>
      <point x="417" y="579"/>
      <point x="417" y="579" type="qcurve"/>
      <point x="417" y="579"/>
      <point x="417" y="578" type="qcurve"/>
      <point x="417" y="578"/>
      <point x="417" y="578" type="qcurve"/>
      <point x="417" y="577" type="line"/>
      <point x="417" y="577"/>
      <point x="417" y="577" type="qcurve"/>
      <point x="417" y="577"/>
      <point x="417" y="577" type="qcurve"/>
      <point x="417" y="577"/>
      <point x="417" y="577" type="qcurve"/>
      <point x="417" y="577"/>
      <point x="417" y="577" type="qcurve"/>
      <point x="417" y="577"/>
      <point x="417" y="576" type="qcurve"/>
      <point x="417" y="576"/>
      <point x="417" y="576" type="qcurve"/>
      <point x="417" y="482"/>
      <point x="377" y="409" type="qcurve" smooth="yes"/>
      <point x="330" y="324"/>
    </contour>
    <contour>
      <point x="140" y="0" type="line"/>
      <point x="745" y="698" type="line"/>
      <point x="782" y="698" type="line"/>
      <point x="177" y="0" type="line"/>
    </contour>
    <contour>
      <point x="239" y="349" type="qcurve"/>
      <point x="346" y="350"/>
      <point x="374" y="492" type="qcurve"/>
      <point x="380" y="514"/>
      <point x="383" y="535" type="qcurve"/>
      <point x="387" y="558"/>
      <point x="387" y="578" type="qcurve" smooth="yes"/>
      <point x="387" y="579" type="line"/>
      <point x="387" y="579"/>
      <point x="387" y="579" type="qcurve"/>
      <point x="387" y="579"/>
      <point x="387" y="579" type="qcurve"/>
      <point x="387" y="579"/>
      <point x="387" y="579" type="qcurve"/>
      <point x="387" y="579"/>
      <point x="387" y="580" type="qcurve"/>
      <point x="387" y="580"/>
      <point x="387" y="580" type="qcurve"/>
      <point x="387" y="580"/>
      <point x="387" y="580" type="qcurve"/>
      <point x="387" y="580"/>
      <point x="387" y="580" type="qcurve"/>
      <point x="387" y="580"/>
      <point x="387" y="580" type="qcurve"/>
      <point x="387" y="580"/>
      <point x="387" y="580" type="qcurve"/>
      <point x="387" y="580"/>
      <point x="387" y="580" type="qcurve"/>
      <point x="387" y="580"/>
      <point x="387" y="580" type="qcurve"/>
      <point x="387" y="580"/>
      <point x="387" y="580" type="qcurve"/>
      <point x="387" y="580"/>
      <point x="387" y="580" type="qcurve"/>
      <point x="387" y="580"/>
      <point x="387" y="580" type="qcurve"/>
      <point x="387" y="580"/>
      <point x="387" y="581" type="qcurve"/>
      <point x="387" y="581"/>
      <point x="387" y="581" type="qcurve"/>
      <point x="387" y="581"/>
      <point x="387" y="581" type="qcurve"/>
      <point x="387" y="581"/>
      <point x="387" y="581" type="qcurve"/>
      <point x="387" y="582" type="line"/>
      <point x="387" y="582"/>
      <point x="387" y="582" type="qcurve"/>
      <point x="387" y="582"/>
      <point x="387" y="582" type="qcurve"/>
      <point x="387" y="582"/>
      <point x="387" y="582" type="qcurve"/>
      <point x="387" y="582"/>
      <point x="387" y="583" type="qcurve"/>
      <point x="387" y="583"/>
      <point x="387" y="583" type="qcurve"/>
      <point x="387" y="583"/>
      <point x="387" y="583" type="qcurve"/>
      <point x="387" y="583"/>
      <point x="387" y="583" type="qcurve"/>
      <point x="387" y="625"/>
      <point x="366" y="654" type="qcurve"/>
      <point x="346" y="685"/>
      <point x="300" y="685" type="qcurve"/>
      <point x="300" y="685"/>
      <point x="300" y="685" type="qcurve"/>
      <point x="300" y="685"/>
      <point x="300" y="685" type="qcurve"/>
      <point x="300" y="685"/>
      <point x="300" y="685" type="qcurve"/>
      <point x="300" y="685"/>
      <point x="300" y="685" type="qcurve"/>
      <point x="300" y="685"/>
      <point x="300" y="685" type="qcurve"/>
      <point x="300" y="685"/>
      <point x="300" y="685" type="qcurve"/>
      <point x="299" y="685" type="line"/>
      <point x="299" y="685"/>
      <point x="299" y="685" type="qcurve"/>
      <point x="299" y="685"/>
      <point x="299" y="685" type="qcurve"/>
      <point x="299" y="685"/>
      <point x="299" y="685" type="qcurve"/>
      <point x="299" y="685"/>
      <point x="299" y="685" type="qcurve"/>
      <point x="299" y="685"/>
      <point x="299" y="685" type="qcurve"/>
      <point x="299" y="685"/>
      <point x="299" y="685" type="qcurve"/>
      <point x="298" y="685" type="line"/>
      <point x="298" y="685"/>
      <point x="298" y="685" type="qcurve"/>
      <point x="298" y="685"/>
      <point x="298" y="685" type="qcurve"/>
      <point x="297" y="685" type="line" smooth="yes"/>
      <point x="192" y="685"/>
      <point x="162" y="543" type="qcurve"/>
      <point x="160" y="522"/>
      <point x="154" y="500" type="qcurve"/>
      <point x="150" y="479"/>
      <point x="149" y="455" type="qcurve"/>
      <point x="149" y="411"/>
      <point x="170" y="380" type="qcurve"/>
      <point x="192" y="350"/>
    </contour>
    <contour>
      <point x="387" y="579" type="qcurve"/>
      <point x="387" y="579"/>
      <point x="387" y="579" type="qcurve"/>
      <point x="387" y="579"/>
      <point x="387" y="579" type="qcurve"/>
      <point x="387" y="579"/>
    </contour>
    <contour>
      <point x="622" y="-12" type="qcurve" smooth="yes"/>
      <point x="566" y="-12"/>
      <point x="534" y="26" type="qcurve"/>
      <point x="504" y="65"/>
      <point x="503" y="123" type="qcurve"/>
      <point x="504" y="220"/>
      <point x="544" y="290" type="qcurve" smooth="yes"/>
      <point x="592" y="374"/>
      <point x="684" y="374" type="qcurve" smooth="yes"/>
      <point x="741" y="374"/>
      <point x="771" y="336" type="qcurve" smooth="yes"/>
      <point x="802" y="298"/>
      <point x="802" y="239" type="qcurve" smooth="yes"/>
      <point x="802" y="143"/>
      <point x="762" y="73" type="qcurve" smooth="yes"/>
      <point x="716" y="-12"/>
    </contour>
    <contour>
      <point x="977" y="13" type="qcurve"/>
      <point x="1085" y="14"/>
      <point x="1112" y="156" type="qcurve"/>
      <point x="1118" y="178"/>
      <point x="1121" y="199" type="qcurve"/>
      <point x="1125" y="222"/>
      <point x="1125" y="243" type="qcurve" smooth="yes"/>
      <point x="1125" y="288"/>
      <point x="1103" y="318" type="qcurve"/>
      <point x="1083" y="349"/>
      <point x="1038" y="349" type="qcurve"/>
      <point x="1038" y="349"/>
      <point x="1038" y="349" type="qcurve"/>
      <point x="1038" y="349"/>
      <point x="1038" y="349" type="qcurve"/>
      <point x="1038" y="349"/>
      <point x="1038" y="349" type="qcurve"/>
      <point x="1038" y="349"/>
      <point x="1037" y="349" type="qcurve"/>
      <point x="1037" y="349"/>
      <point x="1037" y="349" type="qcurve"/>
      <point x="1037" y="349"/>
      <point x="1037" y="349" type="qcurve"/>
      <point x="1037" y="349"/>
      <point x="1037" y="349" type="qcurve"/>
      <point x="1037" y="349"/>
      <point x="1037" y="349" type="qcurve"/>
      <point x="1037" y="349"/>
      <point x="1037" y="349" type="qcurve"/>
      <point x="1037" y="349"/>
      <point x="1037" y="349" type="qcurve"/>
      <point x="1037" y="349"/>
      <point x="1037" y="349" type="qcurve"/>
      <point x="1037" y="349"/>
      <point x="1036" y="349" type="qcurve"/>
      <point x="1036" y="349"/>
      <point x="1036" y="349" type="qcurve"/>
      <point x="1036" y="349"/>
      <point x="1036" y="349" type="qcurve"/>
      <point x="1036" y="349"/>
      <point x="1036" y="349" type="qcurve"/>
      <point x="1036" y="349"/>
      <point x="1036" y="349" type="qcurve"/>
      <point x="1035" y="349" type="line"/>
      <point x="1035" y="349"/>
      <point x="1035" y="349" type="qcurve"/>
      <point x="1035" y="349"/>
      <point x="1035" y="349" type="qcurve"/>
      <point x="1035" y="349"/>
      <point x="1035" y="349" type="qcurve"/>
      <point x="929" y="349"/>
      <point x="899" y="207" type="qcurve"/>
      <point x="896" y="186"/>
      <point x="891" y="164" type="qcurve" smooth="yes"/>
      <point x="886" y="143"/>
      <point x="886" y="119" type="qcurve" smooth="yes"/>
      <point x="886" y="75"/>
      <point x="908" y="44" type="qcurve" smooth="yes"/>
      <point x="930" y="14"/>
    </contour>
    <contour>
      <point x="624" y="13" type="qcurve"/>
      <point x="730" y="14"/>
      <point x="759" y="156" type="qcurve"/>
      <point x="765" y="178"/>
      <point x="768" y="199" type="qcurve"/>
      <point x="772" y="222"/>
      <point x="772" y="243" type="qcurve" smooth="yes"/>
      <point x="772" y="288"/>
      <point x="750" y="318" type="qcurve"/>
      <point x="729" y="349"/>
      <point x="685" y="349" type="qcurve"/>
      <point x="685" y="349"/>
      <point x="685" y="349" type="qcurve"/>
      <point x="685" y="349"/>
      <point x="685" y="349" type="qcurve"/>
      <point x="685" y="349"/>
      <point x="685" y="349" type="qcurve"/>
      <point x="685" y="349"/>
      <point x="684" y="349" type="qcurve"/>
      <point x="684" y="349"/>
      <point x="684" y="349" type="qcurve"/>
      <point x="684" y="349"/>
      <point x="684" y="349" type="qcurve"/>
      <point x="684" y="349"/>
      <point x="684" y="349" type="qcurve"/>
      <point x="684" y="349"/>
      <point x="684" y="349" type="qcurve"/>
      <point x="684" y="349"/>
      <point x="684" y="349" type="qcurve"/>
      <point x="684" y="349"/>
      <point x="684" y="349" type="qcurve"/>
      <point x="684" y="349"/>
      <point x="683" y="349" type="qcurve"/>
      <point x="683" y="349"/>
      <point x="683" y="349" type="qcurve"/>
      <point x="683" y="349"/>
      <point x="683" y="349" type="qcurve"/>
      <point x="683" y="349"/>
      <point x="683" y="349" type="qcurve"/>
      <point x="682" y="349" type="line"/>
      <point x="682" y="349"/>
      <point x="682" y="349" type="qcurve"/>
      <point x="682" y="349"/>
      <point x="682" y="349" type="qcurve"/>
      <point x="682" y="349"/>
      <point x="682" y="349" type="qcurve"/>
      <point x="682" y="349"/>
      <point x="682" y="349" type="qcurve"/>
      <point x="679" y="349" type="line"/>
      <point x="576" y="347"/>
      <point x="546" y="207" type="qcurve" smooth="yes"/>
      <point x="542" y="186"/>
      <point x="538" y="164" type="qcurve" smooth="yes"/>
      <point x="534" y="143"/>
      <point x="534" y="119" type="qcurve" smooth="yes"/>
      <point x="534" y="75"/>
      <point x="555" y="44" type="qcurve"/>
      <point x="578" y="14"/>
    </contour>
    <contour>
      <point x="1155" y="243" type="qcurve"/>
      <point x="1155" y="243"/>
      <point x="1155" y="243" type="qcurve"/>
      <point x="1155" y="243"/>
      <point x="1155" y="243" type="qcurve"/>
      <point x="1155" y="243"/>
    </contour>
    <contour>
      <point x="974" y="-12" type="qcurve" smooth="yes"/>
      <point x="918" y="-12"/>
      <point x="887" y="26" type="qcurve" smooth="yes"/>
      <point x="856" y="65"/>
      <point x="856" y="123" type="qcurve" smooth="yes"/>
      <point x="856" y="220"/>
      <point x="897" y="290" type="qcurve" smooth="yes"/>
      <point x="945" y="374"/>
      <point x="1037" y="374" type="qcurve" smooth="yes"/>
      <point x="1094" y="374"/>
      <point x="1124" y="336" type="qcurve"/>
      <point x="1155" y="299"/>
      <point x="1155" y="243" type="qcurve"/>
      <point x="1155" y="243"/>
      <point x="1155" y="243" type="qcurve"/>
      <point x="1155" y="243"/>
      <point x="1155" y="243" type="qcurve"/>
      <point x="1155" y="243"/>
      <point x="1155" y="243" type="qcurve"/>
      <point x="1155" y="243"/>
      <point x="1155" y="243" type="qcurve"/>
      <point x="1155" y="243"/>
      <point x="1155" y="243" type="qcurve"/>
      <point x="1155" y="243"/>
      <point x="1155" y="243" type="qcurve"/>
      <point x="1155" y="242" type="line"/>
      <point x="1155" y="242"/>
      <point x="1155" y="242" type="qcurve"/>
      <point x="1155" y="242"/>
      <point x="1155" y="242" type="qcurve"/>
      <point x="1155" y="242"/>
      <point x="1155" y="242" type="qcurve"/>
      <point x="1155" y="242"/>
      <point x="1155" y="242" type="qcurve"/>
      <point x="1155" y="242"/>
      <point x="1155" y="242" type="qcurve"/>
      <point x="1155" y="242"/>
      <point x="1155" y="242" type="qcurve"/>
      <point x="1155" y="242"/>
      <point x="1155" y="242" type="qcurve"/>
      <point x="1155" y="241" type="line"/>
      <point x="1155" y="241"/>
      <point x="1155" y="241" type="qcurve"/>
      <point x="1155" y="239" type="line"/>
      <point x="1155" y="239"/>
      <point x="1155" y="239" type="qcurve"/>
      <point x="1155" y="239"/>
      <point x="1155" y="239" type="qcurve"/>
      <point x="1155" y="239"/>
      <point x="1155" y="239" type="qcurve"/>
      <point x="1155" y="143"/>
      <point x="1115" y="73" type="qcurve" smooth="yes"/>
      <point x="1067" y="-12"/>
    </contour>
  </outline>
</glyph>
<glyph name="seven.inferior" format="2">
  <advance width="357"/>
  <unicode hex="2087"/>
  <outline>
    <contour>
      <point x="100" y="0" type="line"/>
      <point x="69" y="0" type="line"/>
      <point x="289" y="344" type="line"/>
      <point x="62" y="344" type="line"/>
      <point x="67" y="369" type="line"/>
      <point x="323" y="369" type="line"/>
      <point x="318" y="342" type="line"/>
    </contour>
  </outline>
</glyph>
<glyph name="naira" format="2">
  <advance width="665"/>
  <unicode hex="20A6"/>
  <outline>
    <contour>
      <point x="466" y="0" type="line"/>
      <point x="369" y="255" type="line"/>
      <point x="138" y="255" type="line"/>
      <point x="87" y="0" type="line"/>
      <point x="54" y="0" type="line"/>
      <point x="105" y="255" type="line"/>
      <point x="17" y="255" type="line"/>
      <point x="23" y="285" type="line"/>
      <point x="111" y="285" type="line"/>
      <point x="137" y="413" type="line"/>
      <point x="50" y="413" type="line"/>
      <point x="56" y="443" type="line"/>
      <point x="144" y="443" type="line"/>
      <point x="194" y="698" type="line"/>
      <point x="238" y="698" type="line"/>
      <point x="335" y="443" type="line"/>
      <point x="566" y="443" type="line"/>
      <point x="617" y="698" type="line"/>
      <point x="650" y="698" type="line"/>
      <point x="599" y="443" type="line"/>
      <point x="687" y="443" type="line"/>
      <point x="681" y="413" type="line"/>
      <point x="593" y="413" type="line"/>
      <point x="567" y="285" type="line"/>
      <point x="654" y="285" type="line"/>
      <point x="648" y="255" type="line"/>
      <point x="560" y="255" type="line"/>
      <point x="510" y="0" type="line"/>
    </contour>
    <contour>
      <point x="220" y="653" type="line"/>
      <point x="216" y="653" type="line"/>
      <point x="174" y="443" type="line"/>
      <point x="299" y="443" type="line"/>
    </contour>
    <contour>
      <point x="310" y="414" type="line"/>
      <point x="169" y="414" type="line"/>
      <point x="143" y="284" type="line"/>
      <point x="359" y="284" type="line"/>
    </contour>
    <contour>
      <point x="561" y="414" type="line"/>
      <point x="345" y="414" type="line"/>
      <point x="394" y="284" type="line"/>
      <point x="535" y="284" type="line"/>
    </contour>
    <contour>
      <point x="530" y="255" type="line"/>
      <point x="405" y="255" type="line"/>
      <point x="484" y="45" type="line"/>
      <point x="488" y="45" type="line"/>
    </contour>
  </outline>
</glyph>
<glyph name="kip" format="2">
  <advance width="575"/>
  <unicode hex="20AD"/>
  <outline>
    <contour>
      <point x="451" y="0" type="line"/>
      <point x="253" y="351" type="line"/>
      <point x="160" y="351" type="line"/>
      <point x="90" y="0" type="line"/>
      <point x="54" y="0" type="line"/>
      <point x="125" y="351" type="line"/>
      <point x="34" y="351" type="line"/>
      <point x="40" y="382" type="line"/>
      <point x="131" y="382" type="line"/>
      <point x="194" y="698" type="line"/>
      <point x="230" y="698" type="line"/>
      <point x="167" y="382" type="line"/>
      <point x="256" y="382" type="line"/>
      <point x="571" y="698" type="line"/>
      <point x="614" y="698" type="line"/>
      <point x="299" y="382" type="line"/>
      <point x="539" y="382" type="line"/>
      <point x="532" y="351" type="line"/>
      <point x="293" y="351" type="line"/>
      <point x="492" y="0" type="line"/>
    </contour>
  </outline>
</glyph>
<glyph name="cedi" format="2">
  <advance width="596"/>
  <unicode hex="20B5"/>
  <outline>
    <contour>
      <point x="153" y="-82" type="line"/>
      <point x="189" y="18" type="line"/>
      <point x="132" y="44"/>
      <point x="99" y="95" type="qcurve" smooth="yes"/>
      <point x="66" y="148"/>
      <point x="66" y="229" type="qcurve" smooth="yes"/>
      <point x="66" y="330"/>
      <point x="99" y="440" type="qcurve" smooth="yes"/>
      <point x="132" y="551"/>
      <point x="205" y="623" type="qcurve" smooth="yes"/>
      <point x="284" y="700"/>
      <point x="396" y="700" type="qcurve" smooth="yes"/>
      <point x="414" y="700"/>
      <point x="432" y="698" type="qcurve"/>
      <point x="462" y="780" type="line"/>
      <point x="494" y="780" type="line"/>
      <point x="462" y="692" type="line"/>
      <point x="568" y="665"/>
      <point x="594" y="557" type="qcurve"/>
      <point x="562" y="542" type="line"/>
      <point x="542" y="634"/>
      <point x="451" y="660" type="qcurve"/>
      <point x="229" y="39" type="line"/>
      <point x="260" y="30"/>
      <point x="293" y="30" type="qcurve" smooth="yes"/>
      <point x="364" y="30"/>
      <point x="412" y="65" type="qcurve" smooth="yes"/>
      <point x="460" y="101"/>
      <point x="498" y="170" type="qcurve"/>
      <point x="526" y="153" type="line"/>
      <point x="480" y="72"/>
      <point x="425" y="35" type="qcurve" smooth="yes"/>
      <point x="371" y="-2"/>
      <point x="290" y="-2" type="qcurve" smooth="yes"/>
      <point x="251" y="-2"/>
      <point x="218" y="8" type="qcurve"/>
      <point x="186" y="-82" type="line"/>
    </contour>
    <contour>
      <point x="421" y="666" type="line"/>
      <point x="393" y="668" type="line"/>
      <point x="298" y="668"/>
      <point x="226" y="598" type="qcurve" smooth="yes"/>
      <point x="154" y="529"/>
      <point x="126" y="397" type="qcurve" smooth="yes"/>
      <point x="111" y="326" type="line"/>
      <point x="102" y="266"/>
      <point x="101" y="224" type="qcurve"/>
      <point x="102" y="98"/>
      <point x="201" y="50" type="qcurve"/>
    </contour>
  </outline>
</glyph>
<glyph name="notequal" format="2">
  <advance width="600"/>
  <unicode hex="2260"/>
  <outline>
    <contour>
      <point x="131" y="87" type="line"/>
      <point x="210" y="199" type="line"/>
      <point x="46" y="199" type="line"/>
      <point x="52" y="229" type="line"/>
      <point x="230" y="229" type="line"/>
      <point x="341" y="382" type="line"/>
      <point x="83" y="382" type="line"/>
      <point x="89" y="412" type="line"/>
      <point x="361" y="412" type="line"/>
      <point x="440" y="524" type="line"/>
      <point x="474" y="524" type="line"/>
      <point x="395" y="412" type="line"/>
      <point x="559" y="412" type="line"/>
      <point x="553" y="382" type="line"/>
      <point x="375" y="382" type="line"/>
      <point x="264" y="229" type="line"/>
      <point x="522" y="229" type="line"/>
      <point x="516" y="199" type="line"/>
      <point x="244" y="199" type="line"/>
      <point x="165" y="87" type="line"/>
    </contour>
  </outline>
</glyph>
<glyph name="ff" format="2">
  <advance width="520"/>
  <unicode hex="FB00"/>
  <outline>
    <contour>
      <point x="-65" y="-200" type="line"/>
      <point x="-59" y="-169" type="line"/>
      <point x="36" y="-169" type="line"/>
      <point x="164" y="477" type="line"/>
      <point x="68" y="477" type="line"/>
      <point x="74" y="508" type="line"/>
      <point x="170" y="508" type="line"/>
      <point x="205" y="688" type="line" smooth="yes"/>
      <point x="210" y="715"/>
      <point x="222" y="727" type="qcurve"/>
      <point x="236" y="740"/>
      <point x="265" y="740" type="qcurve" smooth="yes"/>
      <point x="355" y="740" type="line"/>
      <point x="349" y="709" type="line"/>
      <point x="243" y="709" type="line"/>
      <point x="204" y="508" type="line"/>
      <point x="402" y="508" type="line"/>
      <point x="437" y="688" type="line" smooth="yes"/>
      <point x="442" y="715"/>
      <point x="454" y="727" type="qcurve"/>
      <point x="468" y="740"/>
      <point x="497" y="740" type="qcurve" smooth="yes"/>
      <point x="587" y="740" type="line"/>
      <point x="581" y="709" type="line"/>
      <point x="475" y="709" type="line"/>
      <point x="436" y="508" type="line"/>
      <point x="540" y="508" type="line"/>
      <point x="534" y="477" type="line"/>
      <point x="430" y="477" type="line"/>
      <point x="306" y="-148" type="line"/>
      <point x="302" y="-174"/>
      <point x="289" y="-187" type="qcurve"/>
      <point x="277" y="-200"/>
      <point x="247" y="-200" type="qcurve" smooth="yes"/>
      <point x="167" y="-200" type="line"/>
      <point x="173" y="-169" type="line"/>
      <point x="268" y="-169" type="line"/>
      <point x="396" y="477" type="line"/>
      <point x="198" y="477" type="line"/>
      <point x="74" y="-148" type="line"/>
      <point x="70" y="-174"/>
      <point x="57" y="-187" type="qcurve"/>
      <point x="45" y="-200"/>
      <point x="15" y="-200" type="qcurve" smooth="yes"/>
    </contour>
  </outline>
</glyph>
<glyph name="five.subs" format="2">
  <advance width="340"/>
  <outline>
    <contour>
      <point x="188" y="464" type="qcurve" smooth="yes"/>
      <point x="98" y="464"/>
      <point x="69" y="524" type="qcurve"/>
      <point x="90" y="539" type="line"/>
      <point x="102" y="517"/>
      <point x="124" y="503" type="qcurve"/>
      <point x="148" y="489"/>
      <point x="189" y="489" type="qcurve" smooth="yes"/>
      <point x="282" y="489"/>
      <point x="299" y="569" type="qcurve"/>
      <point x="303" y="585"/>
      <point x="303" y="600" type="qcurve"/>
      <point x="303" y="600"/>
      <point x="303" y="600" type="qcurve"/>
      <point x="303" y="600"/>
      <point x="303" y="600" type="qcurve"/>
      <point x="303" y="600"/>
      <point x="303" y="600" type="qcurve"/>
      <point x="303" y="600"/>
      <point x="303" y="600" type="qcurve"/>
      <point x="303" y="600"/>
      <point x="303" y="600" type="qcurve"/>
      <point x="303" y="600"/>
      <point x="303" y="600" type="qcurve"/>
      <point x="303" y="600"/>
      <point x="303" y="600" type="qcurve"/>
      <point x="303" y="601" type="line"/>
      <point x="303" y="601"/>
      <point x="303" y="601" type="qcurve"/>
      <point x="303" y="601"/>
      <point x="303" y="601" type="qcurve"/>
      <point x="303" y="602" type="line" smooth="yes"/>
      <point x="303" y="670"/>
      <point x="229" y="670" type="qcurve"/>
      <point x="229" y="670"/>
      <point x="229" y="670" type="qcurve"/>
      <point x="229" y="670"/>
      <point x="229" y="670" type="qcurve"/>
      <point x="229" y="670"/>
      <point x="229" y="670" type="qcurve"/>
      <point x="229" y="670"/>
      <point x="229" y="670" type="qcurve"/>
      <point x="229" y="670"/>
      <point x="229" y="670" type="qcurve"/>
      <point x="227" y="670" type="line"/>
      <point x="227" y="670"/>
      <point x="227" y="670" type="qcurve"/>
      <point x="227" y="670"/>
      <point x="227" y="670" type="qcurve"/>
      <point x="225" y="670" type="line" smooth="yes"/>
      <point x="162" y="670"/>
      <point x="130" y="635" type="qcurve"/>
      <point x="104" y="638" type="line"/>
      <point x="157" y="839" type="line"/>
      <point x="365" y="839" type="line"/>
      <point x="360" y="814" type="line"/>
      <point x="176" y="814" type="line"/>
      <point x="132" y="655" type="line"/>
      <point x="135" y="655" type="line"/>
      <point x="172" y="695"/>
      <point x="235" y="695" type="qcurve"/>
      <point x="235" y="695"/>
      <point x="235" y="695" type="qcurve"/>
      <point x="235" y="695"/>
      <point x="235" y="695" type="qcurve"/>
      <point x="235" y="695"/>
      <point x="235" y="695" type="qcurve"/>
      <point x="235" y="695"/>
      <point x="235" y="695" type="qcurve"/>
      <point x="235" y="695"/>
      <point x="235" y="695" type="qcurve"/>
      <point x="236" y="695" type="line"/>
      <point x="236" y="695"/>
      <point x="236" y="695" type="qcurve"/>
      <point x="236" y="695"/>
      <point x="236" y="695" type="qcurve"/>
      <point x="236" y="695"/>
      <point x="236" y="695" type="qcurve"/>
      <point x="236" y="695"/>
      <point x="236" y="695" type="qcurve"/>
      <point x="236" y="695"/>
      <point x="236" y="695" type="qcurve"/>
      <point x="239" y="695" type="line" smooth="yes"/>
      <point x="284" y="695"/>
      <point x="307" y="670" type="qcurve" smooth="yes"/>
      <point x="332" y="644"/>
      <point x="332" y="599" type="qcurve" smooth="yes"/>
      <point x="332" y="539"/>
      <point x="295" y="501" type="qcurve"/>
      <point x="258" y="465"/>
    </contour>
  </outline>
</glyph>
<glyph name="five.sups" format="2">
  <advance width="340"/>
  <outline>
    <contour>
      <point x="188" y="-394" type="qcurve" smooth="yes"/>
      <point x="98" y="-394"/>
      <point x="69" y="-334" type="qcurve"/>
      <point x="90" y="-319" type="line"/>
      <point x="102" y="-341"/>
      <point x="124" y="-355" type="qcurve"/>
      <point x="148" y="-369"/>
      <point x="189" y="-369" type="qcurve" smooth="yes"/>
      <point x="282" y="-369"/>
      <point x="299" y="-289" type="qcurve"/>
      <point x="303" y="-273"/>
      <point x="303" y="-258" type="qcurve"/>
      <point x="303" y="-258"/>
      <point x="303" y="-258" type="qcurve"/>
      <point x="303" y="-258"/>
      <point x="303" y="-258" type="qcurve"/>
      <point x="303" y="-258"/>
      <point x="303" y="-258" type="qcurve"/>
      <point x="303" y="-258"/>
      <point x="303" y="-258" type="qcurve"/>
      <point x="303" y="-258"/>
      <point x="303" y="-258" type="qcurve"/>
      <point x="303" y="-258"/>
      <point x="303" y="-258" type="qcurve"/>
      <point x="303" y="-258"/>
      <point x="303" y="-258" type="qcurve"/>
      <point x="303" y="-257" type="line"/>
      <point x="303" y="-257"/>
      <point x="303" y="-257" type="qcurve"/>
      <point x="303" y="-257"/>
      <point x="303" y="-257" type="qcurve"/>
      <point x="303" y="-256" type="line" smooth="yes"/>
      <point x="303" y="-188"/>
      <point x="229" y="-188" type="qcurve"/>
      <point x="229" y="-188"/>
      <point x="229" y="-188" type="qcurve"/>
      <point x="229" y="-188"/>
      <point x="229" y="-188" type="qcurve"/>
      <point x="229" y="-188"/>
      <point x="229" y="-188" type="qcurve"/>
      <point x="229" y="-188"/>
      <point x="229" y="-188" type="qcurve"/>
      <point x="229" y="-188"/>
      <point x="229" y="-188" type="qcurve"/>
      <point x="227" y="-188" type="line"/>
      <point x="227" y="-188"/>
      <point x="227" y="-188" type="qcurve"/>
      <point x="227" y="-188"/>
      <point x="227" y="-188" type="qcurve"/>
      <point x="225" y="-188" type="line" smooth="yes"/>
      <point x="162" y="-188"/>
      <point x="130" y="-223" type="qcurve"/>
      <point x="104" y="-220" type="line"/>
      <point x="157" y="-19" type="line"/>
      <point x="365" y="-19" type="line"/>
      <point x="360" y="-44" type="line"/>
      <point x="176" y="-44" type="line"/>
      <point x="132" y="-203" type="line"/>
      <point x="135" y="-203" type="line"/>
      <point x="172" y="-163"/>
      <point x="235" y="-163" type="qcurve"/>
      <point x="235" y="-163"/>
      <point x="235" y="-163" type="qcurve"/>
      <point x="235" y="-163"/>
      <point x="235" y="-163" type="qcurve"/>
      <point x="235" y="-163"/>
      <point x="235" y="-163" type="qcurve"/>
      <point x="235" y="-163"/>
      <point x="235" y="-163" type="qcurve"/>
      <point x="235" y="-163"/>
      <point x="235" y="-163" type="qcurve"/>
      <point x="236" y="-163" type="line"/>
      <point x="236" y="-163"/>
      <point x="236" y="-163" type="qcurve"/>
      <point x="236" y="-163"/>
      <point x="236" y="-163" type="qcurve"/>
      <point x="236" y="-163"/>
      <point x="236" y="-163" type="qcurve"/>
      <point x="236" y="-163"/>
      <point x="236" y="-163" type="qcurve"/>
      <point x="236" y="-163"/>
      <point x="236" y="-163" type="qcurve"/>
      <point x="239" y="-163" type="line" smooth="yes"/>
      <point x="284" y="-163"/>
      <point x="307" y="-188" type="qcurve" smooth="yes"/>
      <point x="332" y="-214"/>
      <point x="332" y="-259" type="qcurve" smooth="yes"/>
      <point x="332" y="-319"/>
      <point x="295" y="-357" type="qcurve"/>
      <point x="258" y="-393"/>
    </contour>
  </outline>
</glyph>
<glyph name="one.subs" format="2">
  <advance width="305"/>
  <outline>
    <contour>
      <point x="210" y="470" type="line"/>
      <point x="182" y="470" type="line"/>
      <point x="249" y="812" type="line"/>
      <point x="161" y="770" type="line"/>
      <point x="166" y="798" type="line"/>
      <point x="251" y="839" type="line"/>
      <point x="283" y="839" type="line"/>
    </contour>
  </outline>
</glyph>
<glyph name="seven.subs" format="2">
  <advance width="357"/>
  <outline>
    <contour>
      <point x="167" y="470" type="line"/>
      <point x="136" y="470" type="line"/>
      <point x="356" y="814" type="line"/>
      <point x="129" y="814" type="line"/>
      <point x="134" y="839" type="line"/>
      <point x="390" y="839" type="line"/>
      <point x="385" y="812" type="line"/>
    </contour>
  </outline>
</glyph>
<glyph name="seven.sups" format="2">
  <advance width="357"/>
  <outline>
    <contour>
      <point x="167" y="-388" type="line"/>
      <point x="136" y="-388" type="line"/>
      <point x="356" y="-44" type="line"/>
      <point x="129" y="-44" type="line"/>
      <point x="134" y="-19" type="line"/>
      <point x="390" y="-19" type="line"/>
      <point x="385" y="-46" type="line"/>
    </contour>
  </outline>
</glyph>
<glyph name="zero.sups" format="2">
  <advance width="356"/>
  <outline>
    <contour>
      <point x="202" y="-394" type="qcurve"/>
      <point x="146" y="-393"/>
      <point x="117" y="-360" type="qcurve" smooth="yes"/>
      <point x="88" y="-326"/>
      <point x="88" y="-264" type="qcurve" smooth="yes"/>
      <point x="88" y="-173"/>
      <point x="124" y="-101" type="qcurve" smooth="yes"/>
      <point x="169" y="-13"/>
      <point x="257" y="-13" type="qcurve" smooth="yes"/>
      <point x="314" y="-13"/>
      <point x="342" y="-47" type="qcurve"/>
      <point x="371" y="-79"/>
      <point x="371" y="-139" type="qcurve"/>
      <point x="371" y="-139"/>
      <point x="371" y="-139" type="qcurve"/>
      <point x="371" y="-139"/>
      <point x="371" y="-139" type="qcurve"/>
      <point x="371" y="-139"/>
      <point x="371" y="-139" type="qcurve"/>
      <point x="371" y="-139"/>
      <point x="371" y="-139" type="qcurve"/>
      <point x="371" y="-139"/>
      <point x="371" y="-139" type="qcurve"/>
      <point x="371" y="-139"/>
      <point x="371" y="-139" type="qcurve"/>
      <point x="371" y="-140" type="line"/>
      <point x="371" y="-140"/>
      <point x="371" y="-140" type="qcurve"/>
      <point x="371" y="-140"/>
      <point x="371" y="-140" type="qcurve"/>
      <point x="371" y="-140"/>
      <point x="371" y="-140" type="qcurve"/>
      <point x="371" y="-140"/>
      <point x="371" y="-140" type="qcurve"/>
      <point x="371" y="-140"/>
      <point x="371" y="-140" type="qcurve"/>
      <point x="371" y="-140"/>
      <point x="371" y="-140" type="qcurve"/>
      <point x="371" y="-140"/>
      <point x="371" y="-140" type="qcurve"/>
      <point x="371" y="-141" type="line"/>
      <point x="371" y="-141"/>
      <point x="371" y="-141" type="qcurve"/>
      <point x="371" y="-143" type="line"/>
      <point x="371" y="-143"/>
      <point x="371" y="-143" type="qcurve"/>
      <point x="371" y="-143"/>
      <point x="371" y="-143" type="qcurve"/>
      <point x="371" y="-143"/>
      <point x="371" y="-143" type="qcurve"/>
      <point x="371" y="-143"/>
      <point x="371" y="-143" type="qcurve"/>
      <point x="371" y="-143"/>
      <point x="371" y="-143" type="qcurve"/>
      <point x="371" y="-143"/>
      <point x="371" y="-143" type="qcurve"/>
      <point x="371" y="-144" type="line"/>
      <point x="371" y="-144"/>
      <point x="371" y="-144" type="qcurve"/>
      <point x="371" y="-144"/>
      <point x="371" y="-144" type="qcurve"/>
      <point x="371" y="-144"/>
      <point x="371" y="-144" type="qcurve"/>
      <point x="371" y="-144"/>
      <point x="371" y="-145" type="qcurve"/>
      <point x="371" y="-145"/>
      <point x="371" y="-145" type="qcurve"/>
      <point x="371" y="-145"/>
      <point x="371" y="-145" type="qcurve"/>
      <point x="371" y="-145"/>
      <point x="371" y="-145" type="qcurve"/>
      <point x="371" y="-145"/>
      <point x="371" y="-145" type="qcurve"/>
      <point x="371" y="-145"/>
      <point x="371" y="-145" type="qcurve"/>
      <point x="371" y="-145"/>
      <point x="371" y="-145" type="qcurve"/>
      <point x="371" y="-145"/>
      <point x="371" y="-145" type="qcurve"/>
      <point x="371" y="-145"/>
      <point x="371" y="-145" type="qcurve"/>
      <point x="371" y="-145"/>
      <point x="371" y="-145" type="qcurve"/>
      <point x="371" y="-145"/>
      <point x="371" y="-145" type="qcurve"/>
      <point x="371" y="-146" type="line"/>
      <point x="371" y="-146"/>
      <point x="371" y="-146" type="qcurve"/>
      <point x="371" y="-148" type="line" smooth="yes"/>
      <point x="371" y="-237"/>
      <point x="336" y="-306" type="qcurve" smooth="yes"/>
      <point x="292" y="-393"/>
    </contour>
    <contour>
      <point x="203" y="-369" type="qcurve" smooth="yes"/>
      <point x="302" y="-369"/>
      <point x="327" y="-237" type="qcurve" smooth="yes"/>
      <point x="337" y="-187" type="line"/>
      <point x="342" y="-172"/>
      <point x="342" y="-139" type="qcurve" smooth="yes"/>
      <point x="342" y="-38"/>
      <point x="258" y="-38" type="qcurve"/>
      <point x="258" y="-38"/>
      <point x="258" y="-38" type="qcurve"/>
      <point x="258" y="-38"/>
      <point x="258" y="-38" type="qcurve"/>
      <point x="258" y="-38"/>
      <point x="258" y="-38" type="qcurve"/>
      <point x="258" y="-38"/>
      <point x="258" y="-38" type="qcurve"/>
      <point x="258" y="-38"/>
      <point x="258" y="-38" type="qcurve"/>
      <point x="258" y="-38"/>
      <point x="258" y="-38" type="qcurve"/>
      <point x="258" y="-38"/>
      <point x="258" y="-38" type="qcurve"/>
      <point x="258" y="-38"/>
      <point x="258" y="-38" type="qcurve"/>
      <point x="257" y="-38" type="line"/>
      <point x="257" y="-38"/>
      <point x="257" y="-38" type="qcurve"/>
      <point x="257" y="-38"/>
      <point x="257" y="-38" type="qcurve"/>
      <point x="256" y="-38" type="line" smooth="yes"/>
      <point x="158" y="-38"/>
      <point x="132" y="-170" type="qcurve" smooth="yes"/>
      <point x="122" y="-220" type="line"/>
      <point x="118" y="-232"/>
      <point x="117" y="-268" type="qcurve"/>
      <point x="119" y="-369"/>
    </contour>
  </outline>
</glyph>
